<svg width="414" height="1279" fill="none" xmlns="http://www.w3.org/2000/svg"><g clip-path="url(#a)"><rect width="414" height="1279" rx="40" fill="#190C39"/><g filter="url(#b)"><path d="M637.802 434.858c114.789-157.379-102.817-169.329-236.177-124.155 9.569-79.111-4.316-211.13-136.411-106.321-165.118 131.011-152.732 35.153-92.84 178.74 59.892 143.587 64.142 86.66 190.889 186.347 126.747 99.687 159.75 22.768 274.539-134.611Z" fill="#C8A7FF"/></g><g filter="url(#c)"><ellipse cx="420.5" cy="911.5" rx="196.5" ry="139.5" fill="#8CA8DD"/></g><g opacity=".7" filter="url(#d)"><path d="M-139.472 1088.05c-197.258-53.81-133.353 145.45-41.734 251.11-82.381 16.2-209.452 70.05-58.688 155.88 188.454 107.3 88.358 126.21 210.951 27.4 122.593-98.82 64.231-84.79 119.659-229.91 55.428-145.13-32.93-150.67-230.188-204.48Z" fill="#6AFFD2"/></g></g><defs><filter id="b" x="-536.383" y="-502.44" width="1874.51" height="1784.57" filterUnits="userSpaceOnUse" color-interpolation-filters="sRGB"><feFlood flood-opacity="0" result="BackgroundImageFix"/><feBlend in="SourceGraphic" in2="BackgroundImageFix" result="shape"/><feGaussianBlur stdDeviation="334" result="effect1_foregroundBlur_899_3124"/></filter><filter id="c" x="-376" y="172" width="1593" height="1479" filterUnits="userSpaceOnUse" color-interpolation-filters="sRGB"><feFlood flood-opacity="0" result="BackgroundImageFix"/><feBlend in="SourceGraphic" in2="BackgroundImageFix" result="shape"/><feGaussianBlur stdDeviation="300" result="effect1_foregroundBlur_899_3124"/></filter><filter id="d" x="-978" y="411" width="1753" height="1844" filterUnits="userSpaceOnUse" color-interpolation-filters="sRGB"><feFlood flood-opacity="0" result="BackgroundImageFix"/><feBlend in="SourceGraphic" in2="BackgroundImageFix" result="shape"/><feGaussianBlur stdDeviation="334" result="effect1_foregroundBlur_899_3124"/></filter><clipPath id="a"><path fill="#fff" d="M0 0h414v1279H0z"/></clipPath></defs></svg>