<svg width="153" height="36" fill="none" xmlns="http://www.w3.org/2000/svg"><g clip-path="url(#a)"><path d="m42.02 15.012-3.239 5.6h22.382v-5.6H42.02Z" fill="url(#b)"/><path d="M50.035 28.272h5.809L55.892.191l-5.858 6.517v21.564Z" fill="url(#c)"/><path d="M49.341.19 35.148 15.393l3.719 5.22L55.894.192H49.34Z" fill="url(#d)"/><path d="m53.512 31.9 5.228-5.804a.726.726 0 0 0-.543-1.21H47.739a.726.726 0 0 0-.544 1.21l5.23 5.803a.732.732 0 0 0 1.087 0Z" fill="url(#e)"/><path d="M66.934 27.598h-1.95l-.404.913h-.54l1.66-3.655h.52l1.667 3.655h-.552l-.401-.913Zm-.184-.416-.791-1.79-.791 1.79h1.582ZM70.955 24.64v3.873h-.483v-.437c-.225.314-.582.47-.992.47-.813 0-1.406-.569-1.406-1.416 0-.845.593-1.41 1.406-1.41.393 0 .74.145.97.443v-1.526h.505v.003Zm-.5 2.49c0-.59-.403-.97-.933-.97-.536 0-.94.38-.94.97s.404.976.94.976c.53 0 .933-.388.933-.976ZM74.373 25.747l-1.217 2.766h-.514l-1.216-2.766h.524l.956 2.22.975-2.22h.492ZM76.952 26.843v1.67h-.478v-.366c-.168.252-.478.396-.912.396-.629 0-1.027-.333-1.027-.814 0-.443.288-.81 1.118-.81h.796v-.098c0-.423-.247-.667-.744-.667-.33 0-.667.115-.882.298l-.208-.377c.288-.23.703-.355 1.148-.355.76 0 1.189.366 1.189 1.123Zm-.503.823v-.386h-.777c-.497 0-.64.195-.64.43 0 .276.23.448.613.448.379 0 .678-.172.804-.492ZM80.527 26.92v1.59h-.502v-1.533c0-.544-.272-.809-.75-.809-.536 0-.882.317-.882.919v1.424h-.502v-2.764h.483v.419c.203-.282.56-.443 1.002-.443.673-.003 1.151.382 1.151 1.197ZM81.219 27.13c0-.825.612-1.41 1.469-1.41.497 0 .912.205 1.134.59l-.382.246a.869.869 0 0 0-.755-.396c-.546 0-.955.38-.955.97 0 .602.409.976.955.976a.869.869 0 0 0 .755-.396l.382.24c-.22.386-.634.596-1.134.596-.854-.003-1.47-.593-1.47-1.416ZM86.933 27.297h-2.255c.064.486.456.809 1.008.809.324 0 .599-.11.802-.334l.278.323c-.253.292-.635.448-1.096.448-.898 0-1.494-.59-1.494-1.416 0-.82.593-1.41 1.395-1.41s1.373.574 1.373 1.424c0 .046-.005.11-.011.156Zm-2.255-.361h1.783a.865.865 0 0 0-.893-.793.864.864 0 0 0-.89.793ZM91.51 25.747l-1.348 3.043c-.247.585-.565.768-.99.768-.267 0-.542-.088-.715-.257l.214-.377c.138.13.31.202.497.202.242 0 .393-.11.53-.43l.088-.194-1.227-2.76h.524l.97 2.214.96-2.214h.498v.005ZM91.648 27.13c0-.825.613-1.41 1.448-1.41s1.441.585 1.441 1.41c0 .826-.61 1.416-1.441 1.416-.835-.003-1.448-.593-1.448-1.416Zm2.382 0c0-.59-.399-.97-.934-.97-.536 0-.94.38-.94.97s.404.976.94.976c.535 0 .933-.388.933-.976ZM97.824 25.747v2.766h-.478v-.418c-.203.287-.552.448-.944.448-.72 0-1.195-.39-1.195-1.205v-1.594h.503v1.536c0 .544.272.815.75.815.524 0 .859-.323.859-.918v-1.43h.505ZM100.283 25.72v.486c-.041-.005-.08-.005-.115-.005-.541 0-.876.328-.876.935v1.377h-.503v-2.766h.483v.465c.179-.325.525-.492 1.011-.492ZM67.401 33.573c0 .85-.593 1.416-1.406 1.416-.392 0-.738-.15-.969-.449v1.43h-.503v-3.78h.484v.437c.225-.31.582-.465.991-.465.81 0 1.403.563 1.403 1.41Zm-.51 0c0-.585-.404-.97-.94-.97-.53 0-.933.385-.933.97 0 .59.403.975.933.975.536 0 .94-.388.94-.975ZM70.734 33.362v1.591h-.502V33.42c0-.544-.272-.81-.75-.81-.536 0-.882.32-.882.92v1.423h-.502V31.08h.502v1.498c.209-.265.555-.418.98-.418.679.003 1.154.388 1.154 1.203ZM73.87 33.286v1.67h-.478v-.367c-.167.252-.478.397-.912.397-.629 0-1.027-.334-1.027-.815 0-.443.288-.809 1.118-.809h.796v-.098c0-.424-.247-.667-.744-.667-.33 0-.667.114-.882.298l-.208-.378c.288-.23.703-.355 1.148-.355.76 0 1.189.366 1.189 1.124Zm-.503.822v-.385h-.777c-.497 0-.64.194-.64.43 0 .275.23.447.613.447.379 0 .678-.172.804-.492ZM76.303 32.162v.487c-.042-.006-.08-.006-.116-.006-.54 0-.876.328-.876.935v1.378h-.502v-2.767h.483v.465c.176-.325.522-.492 1.01-.492ZM81.534 33.362v1.591h-.502v-1.534c0-.543-.261-.809-.72-.809-.502 0-.834.32-.834.919v1.424h-.503v-1.534c0-.543-.264-.809-.72-.809-.502 0-.834.32-.834.919v1.424h-.503v-2.766h.483v.413c.2-.282.541-.438.959-.438.425 0 .782.167.964.511.208-.314.598-.51 1.07-.51.68 0 1.14.385 1.14 1.2ZM84.667 33.286v1.67h-.478v-.367c-.168.252-.478.397-.912.397-.629 0-1.027-.334-1.027-.815 0-.443.288-.809 1.118-.809h.796v-.098c0-.424-.247-.667-.744-.667-.33 0-.667.114-.882.298l-.208-.378c.288-.23.703-.355 1.148-.355.758 0 1.189.366 1.189 1.124Zm-.503.822v-.385h-.777c-.497 0-.64.194-.64.43 0 .275.23.447.612.447.38 0 .679-.172.805-.492ZM85.36 33.573c0-.826.612-1.41 1.469-1.41.497 0 .911.201 1.134.59l-.382.246a.868.868 0 0 0-.755-.397c-.547 0-.956.38-.956.97 0 .602.41.976.956.976a.869.869 0 0 0 .755-.396l.382.24c-.22.386-.634.596-1.134.596-.857-.002-1.47-.593-1.47-1.415ZM91.03 32.19l-1.348 3.042c-.247.585-.566.769-.991.769-.267 0-.541-.088-.714-.257l.214-.378a.71.71 0 0 0 .497.203c.242 0 .393-.11.53-.43l.088-.194-1.228-2.76h.525l.97 2.214.96-2.214h.497v.005ZM97.125 32.19l-1.038 2.766h-.484l-.801-2.1-.813 2.1h-.484l-1.032-2.767h.478l.807 2.204.84-2.203h.426l.824 2.214.83-2.215h.447ZM97.54 31.331c0-.183.145-.328.34-.328.195 0 .34.143.34.32a.328.328 0 0 1-.34.334.328.328 0 0 1-.34-.326Zm.09.859h.502v2.766h-.502V32.19ZM100.659 34.795c-.151.131-.382.194-.61.194-.56 0-.881-.309-.881-.867v-1.52h-.473v-.412h.473v-.607h.502v.607h.797v.413h-.797V34.1c0 .298.157.465.437.465a.632.632 0 0 0 .393-.131l.159.36ZM103.906 33.362v1.591h-.503V33.42c0-.544-.271-.81-.749-.81-.536 0-.882.32-.882.92v1.423h-.502V31.08h.502v1.498c.209-.265.555-.418.981-.418.675.003 1.153.388 1.153 1.203ZM108.84 32.19v2.767h-.478v-.419c-.203.287-.552.449-.945.449-.719 0-1.194-.391-1.194-1.206v-1.593h.502v1.533c0 .544.272.815.75.815.524 0 .86-.323.86-.919v-1.43h.505v.003ZM109.449 34.663l.209-.396c.236.167.612.287.975.287.467 0 .662-.142.662-.377 0-.62-1.758-.085-1.758-1.186 0-.495.445-.831 1.159-.831.363 0 .772.093 1.013.251l-.214.396a1.461 1.461 0 0 0-.802-.218c-.439 0-.656.161-.656.38 0 .653 1.763.12 1.763 1.194 0 .5-.461.82-1.2.82-.464.003-.92-.136-1.151-.32ZM13.166 20.57 9.18 14.84H4.784v5.73H0V0h8.945c5.52 0 8.974 2.851 8.974 7.462 0 3.087-1.562 5.347-4.25 6.495l4.635 6.613h-5.138ZM8.68 3.879H4.784v7.17h3.897c2.922 0 4.4-1.35 4.4-3.584-.003-2.263-1.478-3.586-4.4-3.586ZM31.465 20.57l-3.482-4.85-3.603 4.85h-5.02l6.11-7.963-5.905-7.845h5.166l3.367 4.614 3.452-4.614h4.902l-5.904 7.728 6.14 8.08h-5.223ZM76.396 20.57l-3.985-5.73h-4.399v5.73H63.23V0h8.945c5.52 0 8.975 2.851 8.975 7.462 0 3.087-1.565 5.347-4.251 6.495l4.635 6.613h-5.138ZM71.91 3.879h-3.897v7.17h3.897c2.922 0 4.4-1.35 4.4-3.584 0-2.263-1.478-3.586-4.4-3.586ZM83.418 12.664c0-4.761 3.688-8.14 8.739-8.14 5.05 0 8.708 3.379 8.708 8.14 0 4.762-3.66 8.14-8.708 8.14s-8.739-3.378-8.739-8.14Zm12.784 0c0-2.733-1.741-4.379-4.045-4.379s-4.076 1.646-4.076 4.38c0 2.733 1.772 4.378 4.076 4.378 2.304 0 4.045-1.645 4.045-4.379ZM119.931 4.762V20.57h-4.369v-1.881c-1.211 1.38-2.982 2.116-4.929 2.116-3.985 0-6.789-2.234-6.789-7.113v-8.93h4.605v8.258c0 2.643 1.181 3.821 3.219 3.821 2.126 0 3.661-1.353 3.661-4.262V4.762h4.602ZM134.449 19.807c-.944.675-2.331 1-3.748 1-3.752 0-5.935-1.91-5.935-5.672V8.64h-2.45V5.111h2.45V1.263h4.606V5.11h3.957v3.527h-3.957v6.434c0 1.35.738 2.086 1.977 2.086.678 0 1.359-.205 1.862-.588l1.238 3.237ZM152.014 13.957h-12.015c.442 1.968 2.126 3.174 4.545 3.174 1.684 0 2.895-.5 3.988-1.529l2.449 2.644c-1.474 1.676-3.691 2.556-6.555 2.556-5.49 0-9.063-3.44-9.063-8.14 0-4.732 3.631-8.141 8.473-8.141 4.663 0 8.266 3.116 8.266 8.198 0 .358-.058.855-.088 1.238Zm-12.075-2.673h7.824c-.324-1.999-1.829-3.291-3.897-3.291-2.096 0-3.603 1.262-3.927 3.29Z" fill="#3C3C3B"/></g><defs><linearGradient id="b" x1="61.307" y1="19.802" x2="39.605" y2="15.958" gradientUnits="userSpaceOnUse"><stop stop-color="#77E2D4"/><stop offset=".177" stop-color="#77E2D4"/><stop offset=".206" stop-color="#77E2D4"/><stop offset=".239" stop-color="#66D4C9"/><stop offset=".305" stop-color="#3AAFAD"/><stop offset=".357" stop-color="#138F95"/><stop offset=".628" stop-color="#77E2D4"/><stop offset=".729" stop-color="#75E2D3"/><stop offset=".765" stop-color="#6EE1D0"/><stop offset=".791" stop-color="#63DFCA"/><stop offset=".812" stop-color="#52DDC1"/><stop offset=".83" stop-color="#3CDAB7"/><stop offset=".846" stop-color="#21D6A9"/><stop offset=".86" stop-color="#02D29A"/><stop offset=".86" stop-color="#00D299"/><stop offset="1" stop-color="#138F95"/></linearGradient><linearGradient id="c" x1="57.835" y1="27.549" x2="48.848" y2="2.743" gradientUnits="userSpaceOnUse"><stop stop-color="#138F95"/><stop offset=".141" stop-color="#77E2D4"/><stop offset=".453" stop-color="#75E2D3"/><stop offset=".566" stop-color="#6EE1D0"/><stop offset=".646" stop-color="#63DFCA"/><stop offset=".711" stop-color="#52DDC1"/><stop offset=".766" stop-color="#3CDAB7"/><stop offset=".815" stop-color="#21D6A9"/><stop offset=".858" stop-color="#02D29A"/><stop offset=".86" stop-color="#00D299"/><stop offset="1" stop-color="#138F95"/></linearGradient><linearGradient id="d" x1="35.149" y1="10.402" x2="55.894" y2="10.402" gradientUnits="userSpaceOnUse"><stop stop-color="#77E2D4"/><stop offset=".104" stop-color="#7EE4D7"/><stop offset=".259" stop-color="#93EBDE"/><stop offset=".445" stop-color="#B4F6EA"/><stop offset=".5" stop-color="#BFFAEE"/><stop offset="1" stop-color="#77E2D4"/></linearGradient><linearGradient id="e" x1="58.927" y1="28.512" x2="47.007" y2="28.512" gradientUnits="userSpaceOnUse"><stop stop-color="#77E2D4"/><stop offset=".104" stop-color="#7EE4D7"/><stop offset=".259" stop-color="#93EBDE"/><stop offset=".445" stop-color="#B4F6EA"/><stop offset=".5" stop-color="#BFFAEE"/><stop offset="1" stop-color="#77E2D4"/></linearGradient><clipPath id="a"><path fill="#fff" d="M0 0h152.1v36H0z"/></clipPath></defs></svg>