<svg width="512" height="87" fill="none" xmlns="http://www.w3.org/2000/svg"><rect y="24.27" width="508.919" height="62" rx="12" transform="rotate(-2.623 0 24.27)" fill="url(#a)"/><path d="m26.052 63.246 7.16-17.971 2.698-.124 8.873 17.237-3.272.15-2.374-4.846 1.339.814-10.564.484 1.308-.936-1.92 5.044-3.248.148Zm8.642-14.585-3.14 8.502-.684-.744 8.391-.385-.489.799-3.978-8.177-.1.005Zm16.572 13.68c-1.1.051-2.085-.162-2.958-.64-.857-.494-1.54-1.222-2.052-2.183-.511-.961-.798-2.124-.86-3.49-.063-1.364.117-2.54.538-3.528.422-1.003 1.037-1.782 1.846-2.337.824-.571 1.786-.882 2.885-.933 1.049-.048 1.985.168 2.807.648.84.462 1.411 1.12 1.718 1.973l-.325.015-.382-8.341 3.122-.143.842 18.38-3.072.141-.123-2.672.3-.014c-.225.912-.733 1.652-1.525 2.222-.776.553-1.696.854-2.761.903Zm.764-2.437c.982-.045 1.757-.422 2.325-1.133.568-.726.82-1.789.755-3.187-.064-1.399-.411-2.426-1.042-3.08-.63-.656-1.437-.961-2.42-.916-.982.045-1.765.423-2.35 1.134-.568.71-.82 1.764-.756 3.163.064 1.398.412 2.433 1.043 3.105.648.654 1.462.96 2.445.914Zm13.512 1.533L59.52 49.075l3.322-.152 4.397 9.684-.774.035 3.594-10.05 3.122-.143-4.892 12.863-2.747.125Zm14.526-.415c-1.1.05-2.077-.163-2.933-.641-.857-.495-1.54-1.223-2.052-2.184-.511-.96-.798-2.124-.86-3.489-.063-1.365.117-2.541.539-3.528.42-1.004 1.036-1.783 1.845-2.337.808-.571 1.761-.882 2.86-.932 1.066-.049 2.01.175 2.834.671.84.479 1.412 1.153 1.72 2.023l-.276.013.154-2.66 2.997-.137c-.027.518-.052 1.045-.078 1.58-.009.534-.002 1.06.022 1.576l.434 9.465-3.097.142-.144-2.596.3-.014c-.227.878-.736 1.594-1.529 2.147-.792.554-1.704.854-2.736.901Zm.764-2.437c.982-.045 1.757-.423 2.326-1.133.567-.727.819-1.79.754-3.188-.064-1.398-.411-2.425-1.042-3.08-.63-.655-1.437-.96-2.419-.915-.982.044-1.757.422-2.326 1.132-.568.71-.82 1.764-.756 3.163.064 1.398.404 2.434 1.019 3.107.63.655 1.445.96 2.444.914Zm9.841 1.701-.434-9.465a25.224 25.224 0 0 0-.344-3.137l3.022-.139.364 2.486-.3.014c.36-.9.92-1.602 1.681-2.104.76-.519 1.657-.802 2.69-.85 1.481-.067 2.616.298 3.403 1.096.787.798 1.221 2.08 1.302 3.845l.354 7.717-3.122.142-.347-7.567c-.046-1.015-.28-1.73-.699-2.145-.403-.432-.996-.63-1.779-.594-.965.044-1.717.379-2.256 1.004-.539.626-.785 1.438-.74 2.437l.327 7.117-3.122.143Zm20.853-.705c-1.299.06-2.451-.155-3.458-.642a5.583 5.583 0 0 1-2.352-2.17c-.578-.974-.899-2.144-.961-3.51-.063-1.365.15-2.542.639-3.532a5.617 5.617 0 0 1 2.17-2.327c.943-.56 2.063-.87 3.361-.93a7.473 7.473 0 0 1 2.441.288c.811.214 1.477.55 1.999 1.01l-.85 2.216a4.358 4.358 0 0 0-1.566-.854 4.41 4.41 0 0 0-1.638-.25c-1.115.05-1.973.44-2.574 1.169-.584.727-.846 1.757-.785 3.089.062 1.332.416 2.342 1.065 3.03.666.686 1.556 1.004 2.672.953a4.664 4.664 0 0 0 1.584-.373 4.618 4.618 0 0 0 1.506-.995l1.048 2.105c-.494.506-1.135.91-1.922 1.214a7.394 7.394 0 0 1-2.379.51Zm12.64-.579c-2.114.097-3.797-.41-5.05-1.52-1.252-1.11-1.924-2.682-2.017-4.713-.061-1.315.145-2.476.616-3.482a5.725 5.725 0 0 1 2.043-2.396c.907-.592 1.976-.916 3.208-.973 1.216-.055 2.243.156 3.083.635.839.479 1.488 1.175 1.947 2.088.476.913.742 1.993.799 3.242l.038.824-9.19.421-.076-1.648 6.968-.32-.409.37c-.053-1.166-.343-2.045-.871-2.638-.511-.594-1.233-.87-2.165-.827-1.033.047-1.815.45-2.347 1.209-.516.757-.744 1.794-.684 3.11l.015.324c.063 1.365.442 2.374 1.14 3.026.713.634 1.685.924 2.917.867a6.998 6.998 0 0 0 1.986-.366 5.859 5.859 0 0 0 1.754-1.031l1.021 2.055c-.578.51-1.276.918-2.097 1.222a8.639 8.639 0 0 1-2.629.521Zm12.484-.572c-1.099.05-2.085-.163-2.958-.64-.857-.495-1.541-1.222-2.052-2.184-.511-.96-.798-2.123-.86-3.489-.063-1.365.117-2.541.539-3.528.421-1.004 1.036-1.783 1.845-2.337.824-.572 1.786-.883 2.885-.933 1.049-.048 1.985.168 2.807.647.839.462 1.412 1.12 1.718 1.974l-.325.015-.382-8.342 3.122-.143.842 18.381-3.072.14-.123-2.671.3-.014c-.225.911-.733 1.652-1.525 2.222-.775.553-1.696.853-2.761.902Zm.764-2.437c.982-.045 1.757-.423 2.325-1.133.568-.727.819-1.79.755-3.188-.064-1.398-.411-2.425-1.042-3.08-.63-.655-1.437-.96-2.419-.916-.982.045-1.766.423-2.351 1.134-.568.71-.82 1.765-.756 3.163.064 1.399.412 2.434 1.043 3.106.648.654 1.463.959 2.445.914Zm22.075 1.391c-1.499.069-2.649-.27-3.45-1.018-.802-.748-1.239-1.904-1.31-3.469l-.267-5.819-2.422.111-.108-2.347 2.422-.111-.147-3.222 3.085-.942.184 4.02 3.372-.154.107 2.348-3.371.154.257 5.62c.04.865.234 1.465.583 1.8.349.334.815.488 1.398.461.316-.014.581-.052.795-.111a4.53 4.53 0 0 0 .666-.231l.113 2.472a3.96 3.96 0 0 1-.938.294 4.97 4.97 0 0 1-.969.144Zm10.04-.46c-2.115.097-3.798-.41-5.05-1.52-1.252-1.111-1.925-2.682-2.018-4.713-.06-1.315.145-2.476.617-3.482a5.73 5.73 0 0 1 2.042-2.396c.907-.592 1.977-.916 3.209-.973 1.215-.055 2.243.156 3.082.635.84.479 1.489 1.175 1.948 2.088.475.912.742 1.993.799 3.242l.038.824-9.191.42-.075-1.647 6.968-.32-.409.37c-.053-1.166-.344-2.045-.872-2.638-.511-.594-1.232-.87-2.165-.827-1.032.047-1.814.45-2.347 1.209-.516.757-.744 1.794-.683 3.11l.015.324c.062 1.365.442 2.374 1.139 3.026.713.635 1.686.924 2.918.867a6.978 6.978 0 0 0 1.985-.366 5.85 5.85 0 0 0 1.755-1.031l1.02 2.055c-.577.51-1.276.918-2.096 1.222a8.645 8.645 0 0 1-2.629.521Zm13.382-.613c-1.298.06-2.451-.155-3.458-.642a5.584 5.584 0 0 1-2.352-2.17c-.578-.975-.899-2.145-.961-3.51-.063-1.365.15-2.543.639-3.533a5.62 5.62 0 0 1 2.171-2.326c.942-.56 2.062-.87 3.361-.93a7.465 7.465 0 0 1 2.44.288c.811.214 1.477.55 1.999 1.01l-.85 2.216a4.35 4.35 0 0 0-1.566-.854 4.407 4.407 0 0 0-1.638-.25c-1.115.05-1.973.44-2.574 1.169-.584.727-.845 1.757-.784 3.089.061 1.332.416 2.342 1.064 3.03.666.686 1.556 1.004 2.672.953a4.664 4.664 0 0 0 1.584-.373 4.618 4.618 0 0 0 1.506-.995l1.048 2.104c-.494.507-1.135.912-1.922 1.215a7.392 7.392 0 0 1-2.379.509Zm6.779-.56-.842-18.381 3.122-.143.38 8.29-.35.017c.342-.917.902-1.627 1.68-2.13.777-.519 1.681-.802 2.713-.85 1.499-.068 2.634.305 3.405 1.121.771.799 1.196 2.056 1.274 3.77l.356 7.767-3.122.143-.349-7.616c-.045-.983-.269-1.682-.671-2.097-.387-.433-.989-.63-1.804-.593-.949.044-1.701.378-2.257 1.004-.539.609-.786 1.404-.741 2.387l.328 7.167-3.122.143Zm22.75-1.043-.47-10.264-2.422.11-.108-2.347 3.297-.15-.838.838-.088-1.923c-.072-1.565.274-2.765 1.036-3.6.78-.837 1.952-1.291 3.517-1.363.366-.017.75-.01 1.152.022.418.031.781.106 1.086.226l.112 2.447a4.005 4.005 0 0 0-.783-.164 5.312 5.312 0 0 0-.877-.035 2.7 2.7 0 0 0-1.163.303 1.88 1.88 0 0 0-.763.811c-.168.342-.239.795-.213 1.361l.069 1.524-.474-.529 3.771-.173.107 2.348-3.296.15.47 10.265-3.122.143Zm13.734-.379c-1.299.06-2.435-.155-3.408-.645a5.63 5.63 0 0 1-2.327-2.17c-.561-.959-.872-2.113-.934-3.461-.062-1.349.143-2.518.615-3.507a5.626 5.626 0 0 1 2.119-2.374c.924-.577 2.036-.895 3.334-.954 1.299-.06 2.435.155 3.408.645a5.419 5.419 0 0 1 2.327 2.17c.577.942.897 2.087.958 3.435.062 1.349-.151 2.526-.639 3.533a5.423 5.423 0 0 1-2.118 2.375c-.925.576-2.036.894-3.335.953Zm-.11-2.397c.982-.045 1.749-.422 2.301-1.132.551-.726.794-1.788.73-3.186-.064-1.4-.403-2.426-1.017-3.082-.614-.656-1.412-.962-2.395-.917-.982.045-1.749.423-2.3 1.132-.552.71-.796 1.763-.731 3.162.064 1.398.403 2.434 1.018 3.106.614.656 1.412.962 2.394.917Zm9.159 1.732-.43-9.39a27.757 27.757 0 0 0-.124-1.62 16.2 16.2 0 0 0-.199-1.593l3.022-.139.508 3.43-.5.023c.129-.84.372-1.543.729-2.11a3.77 3.77 0 0 1 1.393-1.29 4.293 4.293 0 0 1 1.83-.485 4.21 4.21 0 0 1 .726.017c.184.009.369.042.555.1l.101 2.748a3.443 3.443 0 0 0-.835-.212 5.592 5.592 0 0 0-.827-.012c-.716.033-1.317.21-1.802.533a2.867 2.867 0 0 0-1.042 1.3c-.209.543-.297 1.156-.266 1.838l.308 6.718-3.147.144Zm21.589-.738c-1.099.05-2.085-.163-2.958-.64-.857-.495-1.541-1.223-2.052-2.184-.511-.961-.798-2.124-.86-3.49-.063-1.365.117-2.54.539-3.528.421-1.003 1.036-1.782 1.845-2.337.824-.571 1.786-.882 2.885-.933 1.049-.048 1.985.168 2.808.648.838.462 1.411 1.12 1.717 1.973l-.325.015-.382-8.341 3.122-.143.842 18.38-3.072.141-.123-2.672.3-.014c-.225.911-.733 1.652-1.525 2.222-.775.553-1.696.854-2.761.903Zm.764-2.438c.982-.045 1.757-.422 2.325-1.133.568-.726.819-1.789.755-3.187-.064-1.399-.411-2.426-1.042-3.08-.63-.656-1.437-.961-2.419-.916-.982.045-1.766.423-2.351 1.134-.568.71-.82 1.764-.756 3.163.064 1.398.412 2.433 1.043 3.105.648.654 1.463.96 2.445.914Zm9.791 1.704-.43-9.39a27.75 27.75 0 0 0-.124-1.621 16.197 16.197 0 0 0-.199-1.593l3.022-.138.508 3.43-.5.023c.129-.84.372-1.544.73-2.11a3.76 3.76 0 0 1 1.392-1.29 4.291 4.291 0 0 1 1.83-.485 4.21 4.21 0 0 1 .726.017c.184.008.369.041.555.1l.101 2.748a3.443 3.443 0 0 0-.835-.212 5.592 5.592 0 0 0-.827-.012c-.716.032-1.317.21-1.802.533a2.867 2.867 0 0 0-1.042 1.299c-.209.543-.297 1.156-.266 1.839l.308 6.718-3.147.144Zm9.829-.45-.578-12.612 3.122-.143.578 12.612-3.122.143Zm-.861-14.977-.14-3.047 3.472-.159.139 3.047-3.471.16Zm11.069 14.509-6.022-12.362 3.322-.152 4.397 9.683-.774.036 3.594-10.05 3.122-.143-4.892 12.862-2.747.126Zm15.749-.471c-2.114.097-3.797-.41-5.049-1.52-1.253-1.111-1.925-2.682-2.018-4.713-.06-1.316.145-2.476.616-3.482a5.725 5.725 0 0 1 2.043-2.396c.907-.592 1.976-.917 3.208-.973 1.216-.056 2.243.156 3.083.635.839.478 1.488 1.174 1.947 2.088.476.912.742 1.993.8 3.242l.037.824-9.19.42-.076-1.648 6.968-.319-.408.37c-.054-1.166-.344-2.046-.872-2.639-.511-.593-1.233-.87-2.165-.826-1.032.047-1.815.45-2.347 1.208-.516.758-.744 1.794-.684 3.11l.015.324c.063 1.366.443 2.374 1.14 3.026.713.635 1.686.924 2.918.868a6.994 6.994 0 0 0 1.985-.366 5.873 5.873 0 0 0 1.755-1.032l1.02 2.056c-.578.51-1.276.917-2.097 1.222a8.639 8.639 0 0 1-2.629.52Zm7.552-.596-.43-9.39a26.906 26.906 0 0 0-.124-1.622 16.509 16.509 0 0 0-.198-1.592l3.022-.139.507 3.43-.499.024c.128-.84.371-1.544.729-2.111a3.76 3.76 0 0 1 1.392-1.29 4.29 4.29 0 0 1 1.83-.484c.3-.014.542-.008.727.017.183.008.369.041.555.1l.101 2.748a3.45 3.45 0 0 0-.836-.213 5.578 5.578 0 0 0-.826-.012c-.716.033-1.317.21-1.803.533a2.874 2.874 0 0 0-1.042 1.3c-.208.543-.297 1.156-.266 1.838l.308 6.718-3.147.145Zm14.214-.401c-1.082.05-2.087-.03-3.014-.238-.911-.225-1.685-.556-2.323-.994l.778-2.138a7.627 7.627 0 0 0 2.144.903c.776.198 1.556.279 2.338.243.833-.038 1.442-.208 1.829-.51.403-.301.594-.694.572-1.177-.018-.383-.165-.676-.441-.88-.26-.222-.676-.378-1.248-.469l-2.519-.36c-1.076-.184-1.91-.547-2.502-1.087-.576-.54-.884-1.269-.926-2.184-.036-.783.14-1.483.529-2.102.406-.62.992-1.113 1.759-1.482.783-.386 1.708-.604 2.773-.653a8.927 8.927 0 0 1 2.64.255c.844.212 1.56.554 2.149 1.028l-.806 2.064a5.93 5.93 0 0 0-1.818-.893 5.889 5.889 0 0 0-1.964-.26c-.866.04-1.491.226-1.876.561-.386.318-.568.718-.546 1.201.017.367.147.67.392.908.26.222.651.38 1.173.472l2.519.36c1.125.165 1.984.51 2.575 1.033.607.507.932 1.226.975 2.158.038.833-.154 1.559-.576 2.179-.422.62-1.026 1.106-1.81 1.459-.785.353-1.71.554-2.776.603Zm19.739-.905c-1.098.05-2.076-.163-2.932-.641-.857-.495-1.541-1.222-2.052-2.183-.511-.961-.798-2.124-.861-3.49-.062-1.365.117-2.541.539-3.528.422-1.004 1.037-1.783 1.845-2.337.808-.57 1.762-.882 2.861-.932 1.065-.049 2.01.175 2.833.671.84.479 1.413 1.154 1.72 2.024l-.275.012.154-2.66 2.996-.137c-.026.519-.052 1.045-.077 1.58-.009.535-.002 1.06.022 1.576l.433 9.465-3.096.142-.144-2.596.299-.014c-.226.878-.736 1.594-1.528 2.147-.792.554-1.704.854-2.737.901Zm.765-2.437c.982-.045 1.757-.423 2.325-1.133.568-.726.819-1.789.755-3.188-.064-1.398-.411-2.425-1.042-3.08-.631-.655-1.437-.96-2.419-.915-.983.045-1.758.422-2.326 1.132-.568.71-.82 1.765-.756 3.163.064 1.399.403 2.434 1.018 3.107.631.655 1.446.96 2.445.914Zm9.841 1.701-.434-9.465a25.301 25.301 0 0 0-.344-3.137l3.022-.139.364 2.486-.3.014c.36-.9.92-1.602 1.681-2.104.76-.519 1.657-.802 2.689-.85 1.482-.067 2.616.298 3.404 1.096.787.798 1.221 2.08 1.302 3.845l.353 7.717-3.121.143-.347-7.567c-.046-1.016-.279-1.731-.699-2.146-.403-.432-.996-.63-1.779-.594-.966.044-1.718.38-2.256 1.004-.539.626-.785 1.438-.74 2.437l.326 7.117-3.121.143Zm19.954-.663c-1.099.05-2.085-.164-2.958-.64-.857-.495-1.541-1.223-2.052-2.184-.511-.961-.798-2.124-.86-3.49-.063-1.365.117-2.54.539-3.528.421-1.003 1.036-1.782 1.845-2.337.824-.571 1.786-.882 2.885-.933 1.049-.048 1.985.168 2.808.648.838.462 1.411 1.12 1.717 1.973l-.325.015-.382-8.341 3.122-.143.842 18.38-3.072.141-.122-2.672.299-.014c-.225.911-.733 1.652-1.525 2.222-.775.553-1.696.854-2.761.903Zm.764-2.438c.982-.045 1.757-.422 2.326-1.133.567-.726.819-1.789.754-3.188-.064-1.398-.411-2.425-1.042-3.08-.63-.655-1.437-.96-2.419-.915-.982.045-1.766.423-2.351 1.134-.568.71-.82 1.764-.756 3.162.064 1.399.412 2.434 1.044 3.106.647.654 1.462.959 2.444.914Zm16.916 6.783-.68-14.86a24.387 24.387 0 0 0-.344-3.138l3.022-.137.396 2.634-.275.013c.209-.894.702-1.617 1.477-2.17.791-.57 1.72-.88 2.786-.928 1.115-.052 2.101.17 2.958.665.856.478 1.54 1.197 2.051 2.158.51.944.797 2.1.859 3.464.063 1.366-.116 2.55-.538 3.554-.421 1.004-1.035 1.79-1.843 2.362-.809.554-1.771.857-2.887.908-1.049.048-1.985-.168-2.807-.647-.823-.48-1.388-1.147-1.694-2l.275-.013.366 7.992-3.122.143Zm5.998-7.833c.999-.046 1.783-.423 2.351-1.133.567-.727.819-1.79.755-3.188-.064-1.399-.412-2.426-1.042-3.08-.631-.656-1.446-.96-2.445-.915-.982.045-1.757.423-2.325 1.133-.568.71-.82 1.764-.756 3.163.064 1.398.411 2.433 1.043 3.105.63.655 1.437.96 2.419.915Zm14.123 1.756c-1.099.05-2.076-.164-2.932-.642-.857-.494-1.541-1.222-2.052-2.183-.511-.961-.798-2.124-.861-3.49-.062-1.364.117-2.54.539-3.528.421-1.003 1.036-1.782 1.845-2.337.808-.57 1.762-.881 2.861-.931 1.065-.05 2.01.175 2.833.67.84.48 1.413 1.154 1.72 2.024l-.275.013.153-2.66 2.997-.137c-.026.518-.052 1.045-.077 1.58-.009.534-.002 1.06.022 1.575l.433 9.466-3.096.141-.144-2.596.299-.014c-.226.878-.736 1.594-1.528 2.148-.792.553-1.704.854-2.737.9Zm.765-2.438c.982-.045 1.757-.422 2.325-1.132.567-.727.819-1.79.755-3.188-.064-1.399-.411-2.426-1.042-3.08-.631-.656-1.437-.961-2.419-.916-.983.045-1.758.423-2.326 1.133-.568.71-.82 1.764-.756 3.163.064 1.398.403 2.434 1.018 3.106.631.655 1.446.96 2.445.914Zm15.246 1.704c-1.498.069-2.648-.27-3.45-1.018-.801-.747-1.238-1.903-1.31-3.468l-.266-5.82-2.423.112-.107-2.348 2.422-.11-.148-3.223 3.086-.942.184 4.021 3.371-.154.108 2.347-3.372.155.258 5.619c.039.865.234 1.466.583 1.8.349.334.815.488 1.397.462.317-.015.582-.052.796-.112.231-.06.453-.138.665-.23l.113 2.472c-.277.13-.59.227-.937.293a4.97 4.97 0 0 1-.97.144Zm4.057-.436-.577-12.612 3.121-.142.578 12.611-3.122.143Zm-.861-14.976-.139-3.047 3.471-.159.139 3.047-3.471.159Zm13.478 14.649c-2.114.096-3.798-.41-5.05-1.52-1.252-1.111-1.924-2.682-2.017-4.714-.061-1.315.145-2.475.616-3.481a5.73 5.73 0 0 1 2.042-2.396c.908-.592 1.977-.917 3.209-.973 1.216-.056 2.243.156 3.082.634.84.48 1.489 1.175 1.948 2.088.476.913.742 1.994.799 3.242l.038.824-9.19.421-.076-1.648 6.968-.319-.409.369c-.053-1.165-.344-2.045-.871-2.638-.511-.594-1.233-.87-2.165-.827-1.033.048-1.815.45-2.348 1.21-.515.757-.743 1.793-.683 3.109l.015.324c.062 1.365.442 2.374 1.139 3.026.714.635 1.686.924 2.918.868a6.995 6.995 0 0 0 1.986-.367 5.856 5.856 0 0 0 1.754-1.031l1.02 2.056c-.577.51-1.276.917-2.096 1.222a8.639 8.639 0 0 1-2.629.52Zm7.577-.598-.434-9.465a24.545 24.545 0 0 0-.122-1.57 23.693 23.693 0 0 0-.221-1.567l3.021-.139.364 2.486-.299.014c.359-.9.919-1.602 1.68-2.104.761-.519 1.657-.802 2.689-.85 1.482-.067 2.617.298 3.404 1.096.787.798 1.221 2.08 1.302 3.845l.354 7.717-3.122.143-.347-7.567c-.046-1.016-.279-1.731-.699-2.146-.403-.432-.996-.63-1.779-.594-.965.044-1.717.379-2.256 1.004-.539.626-.785 1.438-.739 2.437l.326 7.117-3.122.143Zm20.454-.686c-1.499.068-2.649-.271-3.451-1.019-.801-.747-1.238-1.903-1.31-3.468l-.266-5.82-2.423.112-.107-2.348 2.422-.11-.147-3.222 3.085-.943.184 4.021 3.371-.154.108 2.347-3.372.155.258 5.619c.039.866.234 1.466.583 1.8.349.334.815.488 1.397.462.317-.015.582-.052.796-.112a4.49 4.49 0 0 0 .665-.23l.113 2.472c-.277.13-.59.227-.937.293a4.97 4.97 0 0 1-.969.145Zm8.563-.393c-1.082.05-2.087-.03-3.014-.237-.911-.225-1.685-.557-2.323-.995l.778-2.138a7.627 7.627 0 0 0 2.144.903 7.943 7.943 0 0 0 2.338.243c.833-.038 1.442-.208 1.829-.509.403-.302.594-.694.572-1.177-.018-.383-.165-.677-.441-.881-.26-.222-.676-.378-1.248-.468l-2.519-.36c-1.076-.185-1.91-.547-2.502-1.087-.576-.541-.884-1.27-.926-2.185-.036-.782.14-1.483.529-2.101.406-.62.992-1.114 1.759-1.482.783-.387 1.708-.604 2.773-.653a8.93 8.93 0 0 1 2.64.254c.844.212 1.56.555 2.149 1.028l-.806 2.064a5.927 5.927 0 0 0-1.818-.892 5.887 5.887 0 0 0-1.964-.26c-.866.039-1.491.226-1.876.56-.386.319-.568.719-.546 1.202.017.366.147.669.392.908.26.221.651.379 1.173.472l2.519.36c1.125.165 1.984.51 2.575 1.033.607.506.932 1.225.975 2.158.038.832-.154 1.558-.576 2.178-.422.62-1.026 1.107-1.81 1.46-.785.352-1.71.553-2.776.602Z" fill="#fff"/><defs><linearGradient id="a" x1="254.46" y1="24.27" x2="254.46" y2="86.27" gradientUnits="userSpaceOnUse"><stop stop-color="#8871F6"/><stop offset="1" stop-color="#7960F6"/></linearGradient></defs></svg>