<svg width="299" height="332" fill="none" xmlns="http://www.w3.org/2000/svg"><g filter="url(#a)"><rect x="53.328" y="17" width="204" height="217" rx="10" transform="rotate(8.3 53.328 17)" fill="#fff"/></g><path d="M75.364 81.033c-.986-.144-1.84-.523-2.563-1.138-.71-.613-1.222-1.427-1.535-2.443-.311-1.028-.367-2.224-.168-3.59.2-1.365.594-2.49 1.184-3.374.592-.896 1.316-1.536 2.172-1.92.868-.383 1.795-.503 2.78-.359.998.146 1.852.525 2.563 1.138.711.613 1.222 1.433 1.533 2.461.325 1.017.387 2.21.188 3.575-.2 1.365-.6 2.495-1.204 3.39-.59.883-1.313 1.518-2.17 1.902-.856.384-1.783.504-2.78.358Zm.293-2.012c.582.085 1.11.004 1.582-.243.474-.258.878-.696 1.21-1.315.345-.616.59-1.423.736-2.42.147-1.01.143-1.854-.013-2.531-.142-.688-.405-1.217-.787-1.588-.38-.383-.862-.617-1.444-.702a2.5 2.5 0 0 0-1.566.262c-.473.247-.881.678-1.226 1.295-.331.607-.57 1.415-.717 2.424-.146.997-.148 1.84-.005 2.528.154.69.421 1.225.802 1.608.394.373.87.6 1.428.682Zm6.339 2.798.226-1.55 5.637-3.98c.473-.33.832-.63 1.077-.897.245-.268.416-.522.512-.763.109-.25.18-.489.213-.714.083-.57-.049-1.038-.395-1.404-.346-.378-.898-.622-1.658-.733a4.208 4.208 0 0 0-1.703.079 3.384 3.384 0 0 0-1.408.795l-1.439-1.483c.582-.582 1.31-.992 2.18-1.228.885-.247 1.838-.296 2.86-.147.902.132 1.664.394 2.286.788.635.384 1.092.869 1.37 1.455.29.588.381 1.25.274 1.987a4.77 4.77 0 0 1-.337 1.188c-.164.376-.427.762-.787 1.158-.361.396-.867.825-1.516 1.289L84.54 81.08l-.354-.943 7.285 1.063-.286 1.959-9.19-1.341Zm12.888-4.923a1.454 1.454 0 0 1-.973-.56 1.465 1.465 0 0 1-.272-1.131c.066-.452.26-.787.583-1.007.325-.231.69-.317 1.093-.259.404.06.728.246.974.56.246.303.337.68.271 1.132a1.465 1.465 0 0 1-.583 1.006c-.325.232-.69.318-1.093.26Zm-.99 6.786a1.454 1.454 0 0 1-.974-.56 1.466 1.466 0 0 1-.271-1.131c.066-.451.26-.787.583-1.007.325-.231.69-.317 1.093-.258.404.058.728.245.974.56.246.303.337.68.271 1.13a1.465 1.465 0 0 1-.583 1.007c-.325.232-.69.318-1.093.26Zm8.152 1.244c-.985-.144-1.84-.523-2.562-1.138-.711-.613-1.223-1.427-1.536-2.443-.31-1.028-.366-2.224-.167-3.59.199-1.365.593-2.49 1.183-3.374.592-.896 1.316-1.536 2.172-1.92.869-.383 1.796-.503 2.781-.36.998.147 1.852.526 2.563 1.139.711.613 1.222 1.433 1.532 2.46.325 1.018.388 2.21.188 3.575-.199 1.366-.6 2.496-1.204 3.39-.589.884-1.313 1.518-2.169 1.903-.856.384-1.783.504-2.781.358Zm.294-2.013c.582.085 1.109.005 1.581-.242.475-.258.878-.696 1.211-1.315.344-.616.59-1.423.735-2.421.147-1.01.143-1.853-.013-2.53-.142-.688-.404-1.218-.787-1.589-.38-.383-.862-.617-1.443-.701a2.501 2.501 0 0 0-1.567.262c-.472.247-.881.678-1.226 1.295-.331.606-.57 1.414-.717 2.424-.145.997-.147 1.84-.005 2.527.154.69.421 1.226.802 1.61.394.372.871.6 1.429.68Zm8.493 3.113 1.689-11.577.862 1.199-3.651-.533.283-1.941 4.952.722-1.819 12.468-2.316-.338Zm10.602 1.547 1.819-12.468 5.13.748c1.104.162 2.022.477 2.754.948.743.472 1.28 1.072 1.611 1.8.33.727.429 1.547.295 2.462-.133.914-.462 1.673-.986 2.275-.525.603-1.211 1.024-2.058 1.264-.836.242-1.806.283-2.91.121l-3.848-.56 1.192-.937-.684 4.685-2.315-.338Zm2.963-4.097-.87-1.273 3.741.546c1.021.149 1.818.047 2.391-.306.586-.363.937-.937 1.051-1.72.116-.796-.056-1.446-.516-1.95-.448-.501-1.183-.827-2.204-.976l-3.74-.546 1.199-.989-1.052 7.214Zm9.787 5.957 1.819-12.468 1.906.278 4.122 9.897-.997-.145 6.689-8.32 1.906.278-1.802 12.47-2.191-.319 1.3-9.033.463.068-5.669 6.94-1.033-.15-3.521-8.282.534.078-1.318 9.03-2.208-.322Z" fill="#24222F"/><path opacity=".4" d="m76.892 50.384 5.7.832-.196 1.346-5.7-.832.196-1.346Zm-.576 4.945 6.46.942-.2 1.378-8.044-1.174 1.617-11.082 7.821 1.14-.2 1.378-6.239-.91-1.215 8.328Zm11.023 3.015 1.416-9.705-3.8-.555.201-1.377 9.167 1.337-.2 1.378-3.8-.555-1.416 9.706-1.568-.23Zm4.857.708 6.636-10.35 1.567.229 3.418 11.817-1.662-.243-2.993-10.85.633.093-5.968 9.542-1.63-.238Zm2.542-2.458.612-1.205 6.238.91.274 1.334-7.124-1.04Zm11.949-1.863a1.075 1.075 0 0 1-.716-.412 1.08 1.08 0 0 1-.201-.837c.046-.317.189-.56.429-.73.241-.17.509-.233.804-.19.285.042.513.177.685.407.181.231.249.505.203.822-.046.317-.19.565-.432.746-.23.17-.487.236-.772.194Zm-.933 6.396a1.077 1.077 0 0 1-.717-.411 1.087 1.087 0 0 1-.201-.838c.047-.317.19-.56.43-.73.241-.17.508-.233.804-.19.285.042.513.178.684.407.182.232.25.506.204.822-.046.317-.19.566-.432.746-.23.171-.487.236-.772.194ZM67.35 121.115l1.416-9.706-3.8-.554.201-1.377 9.167 1.337-.2 1.378-3.8-.555-1.416 9.705-1.568-.228Zm12.586-6.815c.686.101 1.269.32 1.747.66.49.34.843.802 1.06 1.383.217.581.265 1.284.145 2.107l-.704 4.829-1.52-.222.679-4.655c.118-.812.007-1.454-.334-1.924-.33-.469-.854-.755-1.572-.86-.538-.078-1.023-.041-1.455.111a2.244 2.244 0 0 0-1.07.798c-.272.381-.452.877-.541 1.49l-.631 4.322-1.52-.222 1.714-11.748 1.52.222-.82 5.621-.213-.646a2.937 2.937 0 0 1 1.453-1.097c.615-.223 1.302-.279 2.062-.169Zm8.783 10.029c-.897-.13-1.662-.431-2.294-.9a4.108 4.108 0 0 1-1.361-1.751c-.276-.698-.353-1.464-.231-2.297.121-.834.409-1.547.862-2.138a3.998 3.998 0 0 1 1.723-1.285c.698-.276 1.448-.355 2.25-.238.813.119 1.504.403 2.075.853a3.78 3.78 0 0 1 1.234 1.732c.265.696.335 1.477.208 2.343-.009.063-.025.136-.048.219-.012.084-.029.163-.05.235l-7.14-1.042.159-1.092 6.349.926-.673.29c.089-.537.048-1.033-.123-1.489a2.502 2.502 0 0 0-.822-1.123c-.366-.301-.818-.491-1.356-.569a2.747 2.747 0 0 0-1.462.158 2.47 2.47 0 0 0-1.112.857c-.293.388-.48.857-.56 1.406l-.037.253a3.006 3.006 0 0 0 .16 1.559c.2.472.516.862.945 1.173.429.311.944.51 1.546.597a3.45 3.45 0 0 0 1.382-.057 2.969 2.969 0 0 0 1.188-.602l.696 1.104a3.711 3.711 0 0 1-1.573.805c-.593.151-1.238.175-1.935.073Zm13.677 1.996c-.813-.119-1.515-.404-2.106-.857a3.998 3.998 0 0 1-1.285-1.724c-.275-.697-.35-1.474-.226-2.329.125-.855.418-1.572.88-2.151a4.007 4.007 0 0 1 1.723-1.285c.697-.265 1.451-.338 2.264-.219a3.914 3.914 0 0 1 1.846.754c.524.4.908.941 1.154 1.624.256.684.314 1.501.176 2.451-.139.95-.423 1.717-.853 2.301-.42.585-.939 1-1.556 1.244-.616.233-1.289.297-2.017.191Zm.321-1.312a2.84 2.84 0 0 0 1.478-.156 2.589 2.589 0 0 0 1.163-.881c.32-.417.523-.921.609-1.512.088-.602.036-1.137-.154-1.607a2.598 2.598 0 0 0-.863-1.177 2.84 2.84 0 0 0-1.372-.572 2.866 2.866 0 0 0-1.494.154 2.744 2.744 0 0 0-1.163.881c-.316.396-.519.895-.606 1.496-.087.591-.036 1.132.151 1.623.189.48.476.873.863 1.177.387.304.849.496 1.388.574Zm2.685 1.653.331-2.264.379-1.933.125-1.971.816-5.588 1.52.221-1.714 11.748-1.457-.213Zm4.333.632 1.224-8.391 1.456.213-.332 2.28-.06-.591a2.606 2.606 0 0 1 1.366-1.159c.594-.226 1.291-.281 2.094-.164l-.215 1.473a1.249 1.249 0 0 0-.188-.044l-.158-.023c-.813-.118-1.492.031-2.038.447-.546.416-.886 1.083-1.02 2.001l-.609 4.18-1.52-.222Zm6.385.932 1.224-8.391 1.52.222-1.224 8.391-1.52-.222Zm2.22-9.895a1.049 1.049 0 0 1-.703-.394.957.957 0 0 1-.183-.738.98.98 0 0 1 .389-.671c.228-.16.49-.219.786-.176a.994.994 0 0 1 .686.391c.175.209.242.45.202.725a1.035 1.035 0 0 1-.391.687c-.218.162-.48.221-.786.176Zm4.403 10.861-2.449-8.927 1.583.231 2.153 8.076-.76-.111 4.433-7.115 1.489.217-4.898 7.856-1.551-.227Zm10.134 1.576c-.898-.131-1.662-.431-2.294-.901a4.1 4.1 0 0 1-1.362-1.751c-.275-.697-.352-1.463-.231-2.297.122-.834.409-1.547.862-2.138a4.002 4.002 0 0 1 1.724-1.285c.697-.275 1.447-.354 2.249-.237.813.118 1.505.402 2.075.852.57.45.982 1.027 1.235 1.733.265.696.334 1.477.208 2.342a1.737 1.737 0 0 1-.048.219 1.715 1.715 0 0 1-.051.236l-7.14-1.042.159-1.093 6.349.927-.673.29a2.861 2.861 0 0 0-.122-1.49 2.495 2.495 0 0 0-.823-1.122c-.365-.301-.817-.491-1.356-.57a2.747 2.747 0 0 0-1.462.159 2.467 2.467 0 0 0-1.111.856c-.294.388-.481.857-.561 1.406l-.037.253a3.003 3.003 0 0 0 .161 1.56c.2.471.515.862.944 1.172.429.311.945.51 1.546.598.496.072.957.053 1.383-.057.436-.109.832-.31 1.187-.603l.696 1.104a3.696 3.696 0 0 1-1.573.805c-.593.151-1.238.175-1.934.074Zm5.971.774 1.225-8.391 1.456.212-.333 2.28-.059-.59a2.603 2.603 0 0 1 1.366-1.159c.593-.226 1.291-.281 2.093-.164l-.215 1.472a1.206 1.206 0 0 0-.187-.043l-.159-.023c-.812-.119-1.492.03-2.037.446-.546.417-.886 1.084-1.02 2.002l-.61 4.18-1.52-.222Zm12.519 1.827-1.895-8.847 1.441.211 1.662 8.003-.681-.099 3.99-7.179 1.283.187 1.709 8.011-.665-.097 3.943-7.186 1.362.198-4.359 7.934-1.457-.213-1.632-7.32.443.065-3.687 6.544-1.457-.212Zm12.467 1.818 1.224-8.391 1.52.222-1.224 8.391-1.52-.222Zm2.22-9.895a1.052 1.052 0 0 1-.703-.393.96.96 0 0 1-.183-.739.971.971 0 0 1 .389-.67c.228-.161.49-.22.785-.177a.998.998 0 0 1 .687.391.882.882 0 0 1 .201.725 1.027 1.027 0 0 1-.391.687c-.217.162-.479.221-.785.176Zm2.202 10.541 1.714-11.748 1.52.222-1.714 11.747-1.52-.221Zm4.422.645 1.714-11.748 1.519.222-1.713 11.747-1.52-.221Zm13.108 2.009a4.054 4.054 0 0 1-1.878-.759c-.522-.41-.906-.957-1.151-1.639-.235-.681-.283-1.497-.144-2.447.138-.95.423-1.717.853-2.301.441-.582.969-.99 1.585-1.224a3.972 3.972 0 0 1 1.985-.195c.823.12 1.526.406 2.106.857a3.998 3.998 0 0 1 1.285 1.723c.277.688.353 1.459.229 2.314-.125.855-.419 1.577-.883 2.167a4 4 0 0 1-1.723 1.285c-.686.266-1.44.339-2.264.219Zm-4.435-.744L183.065 126l1.52.221-.815 5.589-.443 1.924-.189 1.962-.33 2.264-1.457-.213Zm4.503-.604a2.876 2.876 0 0 0 1.494-.154c.468-.18.856-.474 1.163-.881.32-.417.523-.921.609-1.512.088-.602.036-1.138-.154-1.607a2.598 2.598 0 0 0-.863-1.177 2.866 2.866 0 0 0-1.388-.575 2.929 2.929 0 0 0-1.493.154 2.735 2.735 0 0 0-1.164.882c-.306.397-.503.896-.59 1.498-.087.591-.041 1.131.135 1.621.189.48.476.872.863 1.176.398.306.86.498 1.388.575Zm10.012 2.819c-.897-.131-1.662-.431-2.294-.901a4.098 4.098 0 0 1-1.361-1.751c-.276-.697-.353-1.463-.231-2.297.121-.834.409-1.547.861-2.138a4.008 4.008 0 0 1 1.724-1.285c.698-.275 1.448-.354 2.25-.237.813.118 1.504.402 2.075.852a3.78 3.78 0 0 1 1.234 1.732c.265.697.335 1.477.208 2.343a1.775 1.775 0 0 1-.048.219 1.718 1.718 0 0 1-.05.236l-7.141-1.042.16-1.093 6.348.927-.672.289a2.848 2.848 0 0 0-.123-1.489 2.493 2.493 0 0 0-.822-1.122c-.366-.302-.818-.491-1.356-.57a2.746 2.746 0 0 0-1.462.159 2.47 2.47 0 0 0-1.112.856c-.294.388-.481.857-.561 1.406l-.037.253a3.013 3.013 0 0 0 .161 1.56c.201.471.516.862.945 1.172.429.311.944.51 1.546.598.496.072.957.053 1.382-.057.437-.109.832-.31 1.188-.603l.696 1.104a3.702 3.702 0 0 1-1.573.805c-.593.151-1.238.175-1.935.074Zm7.255-5.474a1.078 1.078 0 0 1-.716-.412 1.088 1.088 0 0 1-.201-.838c.046-.316.189-.56.43-.729.24-.17.508-.233.804-.19a.998.998 0 0 1 .684.407c.182.231.25.505.203.822-.046.317-.19.565-.432.745a1 1 0 0 1-.772.195Zm-.933 6.396a1.072 1.072 0 0 1-.716-.412 1.085 1.085 0 0 1-.201-.837c.046-.317.189-.56.43-.73.24-.17.508-.233.803-.19.285.042.514.177.685.407.182.231.249.505.203.822-.046.317-.19.565-.432.746-.23.171-.487.236-.772.194Z" fill="#24222F"/><rect x="62.621" y="126.488" width="89" height="24" rx="12" transform="rotate(8.3 62.621 126.488)" fill="#171717"/><path d="M74.73 141.752c-.428-.062-.79-.2-1.086-.413a5.72 5.72 0 0 1-.807-.7c-.23-.251-.452-.478-.665-.679a1.22 1.22 0 0 0-.694-.356c-.356-.052-.655.044-.897.288-.24.232-.406.577-.497 1.037l-1.425-.208c.18-1.065.54-1.825 1.079-2.28.539-.455 1.165-.63 1.877-.526.428.062.789.206 1.083.43.309.215.578.448.808.7.23.252.451.479.665.679.213.201.444.32.694.356.368.054.673-.041.914-.285.254-.242.42-.593.5-1.055l1.407.206c-.168 1.067-.521 1.828-1.06 2.283-.54.454-1.172.629-1.896.523Zm3.888 2.368.234-1.603 7.317-7.136 2.475.361-7.228 7.15-1.105-.526 9.885 1.443-.286 1.959-11.292-1.648Zm6.426 3.83.413-2.832.358-1.949.366-2.511 2.173.317-1.066 7.303-2.244-.328Zm9.534 1.573a9.127 9.127 0 0 1-2.528-.751c-.793-.382-1.442-.841-1.946-1.375l1.242-1.656c.397.434.9.81 1.509 1.13a6.23 6.23 0 0 0 1.98.634c.82.12 1.487.041 2-.236.525-.275.83-.703.915-1.285a1.811 1.811 0 0 0-.152-1.077c-.147-.325-.458-.601-.934-.828-.465-.225-1.124-.4-1.98-.525l-3.01-.439 1.632-6.693 7.32 1.068-.283 1.942-6.466-.944 1.373-.927-1.222 5.006-1.052-1.263 2.511.366c1.235.18 2.202.491 2.902.933.713.431 1.2.963 1.459 1.595.273.622.356 1.301.248 2.037a3.897 3.897 0 0 1-.825 1.917c-.445.554-1.062.961-1.852 1.222-.778.262-1.725.312-2.841.149Zm25.303-6.313c.76.111 1.409.357 1.947.739.551.383.947.908 1.19 1.574.244.654.296 1.462.155 2.424l-.795 5.45-2.226-.325.753-5.165c.123-.843.031-1.499-.276-1.968-.308-.47-.806-.755-1.495-.855a2.626 2.626 0 0 0-1.347.131 2.27 2.27 0 0 0-1.01.816c-.263.387-.441.9-.534 1.541l-.705 4.827-2.226-.324.754-5.166c.123-.843.03-1.499-.277-1.968-.308-.47-.806-.755-1.494-.855a2.637 2.637 0 0 0-1.347.131c-.4.16-.736.432-1.011.817-.262.386-.44.899-.534 1.541l-.704 4.826-2.227-.324 1.388-9.512 2.12.31-.369 2.529-.265-.803c.41-.571.942-.972 1.594-1.204.665-.231 1.389-.289 2.172-.175.891.13 1.631.463 2.22.997.6.537.943 1.266 1.027 2.187l-.829-.43c.413-.667 1.006-1.163 1.781-1.486.775-.324 1.632-.417 2.57-.28Zm5.342 10.602 1.388-9.511 2.226.325-1.387 9.511-2.227-.325Zm2.739-10.915c-.416-.06-.741-.241-.976-.542a1.3 1.3 0 0 1-.254-1.001c.055-.38.232-.676.529-.887.311-.222.675-.302 1.09-.241.416.06.736.234.961.522.239.277.331.6.277.968a1.402 1.402 0 0 1-.537.94c-.299.223-.663.304-1.09.241Zm9.21 2.836c.76.111 1.415.358 1.965.741.563.385.971.912 1.225 1.58.256.655.314 1.464.174 2.426l-.795 5.45-2.227-.324.754-5.166c.123-.843.013-1.502-.33-1.976-.332-.473-.853-.761-1.566-.865-.522-.076-1.001-.037-1.436.118a2.259 2.259 0 0 0-1.084.824c-.275.384-.459.897-.552 1.538l-.702 4.809-2.226-.325 1.387-9.511 2.12.309-.374 2.565-.26-.838c.421-.557.969-.95 1.646-1.179.689-.239 1.45-.298 2.281-.176Z" fill="#F1F1F1"/><rect x="53.09" y="191.797" width="25" height="24" rx="12" transform="rotate(8.3 53.09 191.797)" fill="#171717"/><path d="m58.3 210.748.225-1.55 5.638-3.98c.473-.331.832-.63 1.077-.898.245-.267.416-.521.511-.762.11-.251.18-.489.214-.715.083-.57-.049-1.038-.396-1.403-.345-.378-.897-.623-1.657-.733a4.195 4.195 0 0 0-1.704.079 3.37 3.37 0 0 0-1.407.795l-1.44-1.484c.583-.582 1.31-.991 2.181-1.228.885-.247 1.838-.296 2.86-.147.902.132 1.664.395 2.285.789.636.384 1.092.869 1.37 1.455.29.588.382 1.25.275 1.986-.06.404-.171.8-.337 1.188-.164.376-.427.762-.788 1.158-.36.397-.866.826-1.516 1.289l-4.847 3.422-.353-.943 7.285 1.063-.286 1.959-9.19-1.34Z" fill="#F1F1F1"/><path opacity=".4" d="M58.83 186.7a7.803 7.803 0 0 1-2.367-.733c-.733-.377-1.29-.803-1.673-1.279l.766-1.15c.368.431.862.816 1.48 1.154a5.865 5.865 0 0 0 1.99.662c.644.094 1.177.097 1.6.007.422-.089.747-.246.974-.472.228-.236.367-.518.414-.845.056-.38-.026-.704-.246-.974-.209-.267-.504-.499-.885-.695a9.71 9.71 0 0 0-1.242-.569c-.46-.175-.923-.366-1.388-.574a7.1 7.1 0 0 1-1.233-.746 2.771 2.771 0 0 1-.82-1.025c-.188-.416-.239-.919-.153-1.51.084-.57.308-1.071.672-1.503.377-.441.898-.758 1.562-.952.677-.204 1.5-.234 2.471-.093a7.5 7.5 0 0 1 1.88.533c.608.262 1.121.584 1.54.969l-.708 1.19a4.985 4.985 0 0 0-1.404-.9 5.763 5.763 0 0 0-1.504-.446c-.623-.091-1.146-.086-1.57.014-.424.099-.75.267-.98.504-.217.237-.35.52-.398.847-.057.39.02.72.228.987.22.269.514.501.885.695.381.196.8.386 1.259.572.46.175.917.365 1.372.572a5.95 5.95 0 0 1 1.235.73c.369.28.648.623.836 1.027.19.405.241.898.157 1.478-.082.56-.311 1.06-.688 1.501-.376.43-.907.746-1.594.948-.675.192-1.498.218-2.468.076Zm9.267 1.32c-.844-.123-1.465-.446-1.863-.967-.399-.522-.536-1.205-.413-2.049l1.123-7.695 1.52.222-1.114 7.631c-.066.454-.006.819.18 1.094.197.276.507.445.929.507.475.069.89-.005 1.245-.223l.316 1.162a2.219 2.219 0 0 1-.904.321c-.33.049-.67.048-1.019-.003Zm-3.029-7.831.183-1.251 5.351.781-.182 1.25-5.352-.78Zm10.02 8.851c-.845-.123-1.568-.417-2.168-.882a4.166 4.166 0 0 1-1.33-1.747c-.284-.709-.367-1.476-.246-2.299.121-.834.419-1.545.893-2.134a4.05 4.05 0 0 1 1.77-1.277c.71-.274 1.486-.35 2.33-.227.834.122 1.55.415 2.151.88a3.912 3.912 0 0 1 1.333 1.731c.287.688.37 1.455.246 2.299-.121.834-.42 1.545-.893 2.134a4.017 4.017 0 0 1-1.774 1.293c-.708.274-1.479.35-2.313.229Zm.193-1.33a2.875 2.875 0 0 0 1.494-.154 2.6 2.6 0 0 0 1.164-.881c.309-.419.506-.924.592-1.515.088-.601.042-1.136-.137-1.604a2.597 2.597 0 0 0-.864-1.177 2.867 2.867 0 0 0-1.387-.575 2.875 2.875 0 0 0-1.494.154 2.736 2.736 0 0 0-1.163.882c-.317.395-.519.894-.607 1.496-.086.591-.036 1.132.151 1.623.19.48.477.872.864 1.176.386.305.849.496 1.387.575Zm10.711 2.921a3.975 3.975 0 0 1-1.846-.755c-.523-.41-.912-.957-1.168-1.641-.245-.683-.298-1.499-.16-2.449.139-.95.418-1.718.838-2.303.43-.584.953-.993 1.569-1.227.627-.232 1.299-.295 2.017-.191.823.121 1.525.406 2.106.857a4.005 4.005 0 0 1 1.285 1.724c.277.687.353 1.458.228 2.313-.125.855-.419 1.578-.882 2.168a3.996 3.996 0 0 1-1.724 1.284c-.685.267-1.44.34-2.263.22Zm-4.883 2.327 1.672-11.463 1.457.213-.33 2.264-.38 1.934-.125 1.97-.774 5.304-1.52-.222Zm4.95-3.676a2.855 2.855 0 0 0 1.494-.154 2.591 2.591 0 0 0 1.164-.881c.32-.417.522-.921.608-1.512.088-.601.037-1.137-.153-1.607a2.596 2.596 0 0 0-.863-1.177 2.865 2.865 0 0 0-1.388-.574 2.92 2.92 0 0 0-1.494.154 2.741 2.741 0 0 0-1.163.881c-.306.397-.503.897-.59 1.499-.087.591-.042 1.131.135 1.62.188.48.476.873.863 1.177.397.306.86.497 1.387.574Zm8.683 2.625a6.938 6.938 0 0 1-1.954-.576c-.595-.281-1.052-.584-1.37-.911l.808-1.111c.324.295.737.566 1.24.811.503.246 1.03.409 1.578.489.707.104 1.229.077 1.564-.079.346-.154.545-.411.597-.77.039-.263-.026-.483-.195-.659-.168-.175-.405-.323-.71-.443-.296-.118-.63-.232-1.002-.34-.371-.119-.74-.248-1.108-.388a5.15 5.15 0 0 1-.99-.532 2.088 2.088 0 0 1-.66-.792c-.147-.323-.185-.728-.114-1.213a2.18 2.18 0 0 1 .621-1.268c.34-.338.784-.57 1.33-.695.56-.134 1.197-.149 1.915-.044a7.02 7.02 0 0 1 1.632.448c.552.21.99.462 1.313.758l-.825 1.108a3.62 3.62 0 0 0-1.111-.696 5.53 5.53 0 0 0-1.214-.322c-.665-.097-1.177-.059-1.537.115-.358.163-.561.414-.61.752-.042.285.02.52.187.706.18.177.416.33.71.46.304.13.641.255 1.012.374.372.108.741.237 1.108.388.367.139.693.311.976.514.293.204.514.463.662.776.16.314.204.709.135 1.184a2.061 2.061 0 0 1-.635 1.249c-.35.326-.809.556-1.378.688-.567.122-1.226.129-1.975.019Zm14.226 2.076a4.054 4.054 0 0 1-1.879-.759c-.522-.411-.906-.957-1.151-1.64-.235-.681-.283-1.496-.144-2.446.138-.95.423-1.717.853-2.301.441-.583.969-.991 1.585-1.224a3.984 3.984 0 0 1 1.985-.196c.824.121 1.526.406 2.107.858a3.99 3.99 0 0 1 1.284 1.723c.277.687.353 1.458.229 2.313-.125.855-.419 1.578-.882 2.168a3.998 3.998 0 0 1-1.724 1.284c-.686.267-1.44.34-2.263.22Zm-4.435-.744 1.713-11.748 1.52.222-.815 5.589-.442 1.924-.19 1.961-.33 2.264-1.456-.212Zm4.502-.605a2.856 2.856 0 0 0 1.494-.154 2.589 2.589 0 0 0 1.163-.881c.32-.417.523-.921.609-1.512.088-.601.036-1.137-.154-1.607a2.598 2.598 0 0 0-.863-1.177 2.866 2.866 0 0 0-1.387-.574 2.92 2.92 0 0 0-1.494.154 2.74 2.74 0 0 0-1.164.881c-.306.397-.502.897-.59 1.499-.087.591-.041 1.131.135 1.62.189.48.477.873.863 1.177.398.306.86.497 1.388.574Zm10.012 2.819c-.897-.131-1.662-.431-2.294-.9a4.104 4.104 0 0 1-1.361-1.751c-.276-.698-.353-1.464-.231-2.298.122-.833.409-1.546.862-2.138a3.99 3.99 0 0 1 1.723-1.284c.698-.276 1.448-.355 2.25-.238.813.119 1.504.403 2.075.853.57.449.982 1.027 1.234 1.732.265.696.335 1.477.208 2.343a1.775 1.775 0 0 1-.048.219 1.703 1.703 0 0 1-.05.235l-7.141-1.042.16-1.092 6.349.926-.673.29c.089-.537.048-1.033-.123-1.489a2.494 2.494 0 0 0-.822-1.123c-.366-.301-.818-.491-1.356-.569a2.746 2.746 0 0 0-1.462.158 2.472 2.472 0 0 0-1.112.857c-.293.388-.48.857-.56 1.405l-.037.254a2.999 2.999 0 0 0 .16 1.559c.201.472.516.862.945 1.173.429.31.944.51 1.546.597.496.073.957.054 1.382-.057a2.96 2.96 0 0 0 1.188-.603l.696 1.105a3.713 3.713 0 0 1-1.573.805c-.593.15-1.238.175-1.935.073Zm6.193.807 1.333-9.135c.12-.824.453-1.443.999-1.86.558-.425 1.28-.573 2.167-.443.327.047.632.135.916.262.295.119.536.278.722.478l-.628 1.089a1.659 1.659 0 0 0-.496-.364 1.838 1.838 0 0 0-.617-.203c-.444-.065-.8.013-1.069.232-.268.209-.437.556-.508 1.042l-.164 1.124-.07.701-1.065 7.299-1.52-.222Zm-.383-7.348.183-1.251 5.351.781-.182 1.25-5.352-.78Zm9.2 8.731c-.845-.123-1.567-.417-2.168-.882a4.172 4.172 0 0 1-1.329-1.746c-.285-.71-.367-1.477-.247-2.3.122-.834.419-1.545.893-2.133a4.049 4.049 0 0 1 1.771-1.278c.709-.274 1.485-.349 2.329-.226.834.122 1.551.415 2.152.88a3.91 3.91 0 0 1 1.332 1.73c.288.689.37 1.455.247 2.3-.122.834-.42 1.545-.894 2.133a4.022 4.022 0 0 1-1.773 1.294c-.708.274-1.479.35-2.313.228Zm.194-1.33a2.866 2.866 0 0 0 1.494-.154 2.589 2.589 0 0 0 1.163-.881c.309-.418.507-.923.593-1.514.088-.602.042-1.137-.138-1.605a2.598 2.598 0 0 0-.863-1.177 2.865 2.865 0 0 0-1.388-.574 2.866 2.866 0 0 0-1.494.154 2.744 2.744 0 0 0-1.163.881c-.316.396-.519.895-.606 1.496-.087.591-.036 1.132.151 1.623.189.48.476.873.863 1.177.387.304.849.496 1.388.574Zm6.275 2.177 1.225-8.391 1.456.212-.332 2.28-.06-.59a2.603 2.603 0 0 1 1.366-1.159c.593-.226 1.291-.281 2.093-.164l-.214 1.472a1.245 1.245 0 0 0-.188-.043l-.158-.023c-.813-.119-1.492.03-2.038.446-.546.417-.886 1.084-1.02 2.002l-.61 4.18-1.52-.222Zm10.031 1.561c-.897-.131-1.662-.432-2.294-.901a4.111 4.111 0 0 1-1.361-1.751c-.276-.698-.353-1.463-.231-2.297.122-.834.409-1.547.862-2.138a4.005 4.005 0 0 1 1.723-1.285c.698-.275 1.448-.355 2.25-.238.813.119 1.504.403 2.075.853a3.79 3.79 0 0 1 1.235 1.732c.265.696.334 1.477.208 2.343-.01.063-.026.136-.049.219a1.672 1.672 0 0 1-.05.235l-7.14-1.041.159-1.093 6.349.926-.673.29a2.858 2.858 0 0 0-.122-1.489 2.495 2.495 0 0 0-.823-1.122c-.366-.302-.818-.492-1.356-.57a2.756 2.756 0 0 0-1.462.158 2.464 2.464 0 0 0-1.111.857c-.294.388-.481.857-.561 1.406l-.037.253a3.01 3.01 0 0 0 .16 1.559c.201.472.516.863.945 1.173.429.311.944.51 1.546.598.496.072.957.053 1.383-.057.436-.109.832-.31 1.187-.603l.696 1.104a3.702 3.702 0 0 1-1.573.805c-.593.151-1.238.175-1.935.074Zm13.804 2.013c-.845-.123-1.567-.417-2.167-.882a4.166 4.166 0 0 1-1.33-1.746c-.285-.71-.367-1.476-.247-2.3.122-.833.42-1.545.893-2.133a4.065 4.065 0 0 1 1.771-1.278c.709-.274 1.485-.349 2.33-.226.833.122 1.551.415 2.151.88a3.908 3.908 0 0 1 1.332 1.73c.288.689.37 1.456.247 2.3-.122.834-.42 1.545-.894 2.133a4.015 4.015 0 0 1-1.773 1.294c-.708.274-1.479.35-2.313.228Zm.194-1.329a2.876 2.876 0 0 0 1.494-.154c.468-.18.856-.474 1.163-.882.309-.418.507-.923.593-1.514.088-.602.042-1.136-.138-1.605a2.603 2.603 0 0 0-.863-1.177 2.875 2.875 0 0 0-1.387-.574 2.874 2.874 0 0 0-1.494.154 2.74 2.74 0 0 0-1.164.881c-.316.396-.518.895-.606 1.496-.086.591-.036 1.132.151 1.623.189.481.477.873.863 1.177.387.305.85.496 1.388.575Zm6.276 2.176 1.224-8.391 1.456.213-.332 2.28-.059-.591a2.6 2.6 0 0 1 1.365-1.159c.594-.226 1.291-.281 2.094-.164l-.215 1.473a1.115 1.115 0 0 0-.188-.044l-.158-.023c-.813-.118-1.492.03-2.038.447-.546.416-.886 1.083-1.02 2.001l-.609 4.18-1.52-.222Zm9.761 1.522c-.812-.119-1.515-.405-2.106-.858a4 4 0 0 1-1.285-1.723c-.275-.698-.351-1.474-.226-2.329.125-.855.418-1.572.88-2.152a3.992 3.992 0 0 1 1.724-1.284c.696-.265 1.45-.338 2.263-.22a3.911 3.911 0 0 1 1.846.755c.524.4.909.941 1.154 1.623.256.684.315 1.501.176 2.451-.139.95-.423 1.717-.853 2.301-.42.586-.938 1.001-1.556 1.245-.616.233-1.288.297-2.017.191Zm.321-1.312c.528.077 1.02.025 1.478-.156.468-.18.856-.474 1.163-.881.32-.417.523-.921.609-1.512.088-.602.037-1.138-.154-1.607a2.59 2.59 0 0 0-.863-1.177 2.827 2.827 0 0 0-1.371-.572 2.854 2.854 0 0 0-1.494.154 2.74 2.74 0 0 0-1.164.881c-.316.396-.518.894-.606 1.496-.086.591-.036 1.132.151 1.623.189.48.477.872.863 1.177.387.304.85.496 1.388.574Zm2.685 1.653.331-2.264.379-1.933.126-1.971.815-5.589 1.52.222-1.714 11.748-1.457-.213Zm8.055 1.272c-.897-.131-1.661-.431-2.294-.9a4.111 4.111 0 0 1-1.361-1.751c-.276-.698-.352-1.464-.231-2.298.122-.833.409-1.546.862-2.138a3.995 3.995 0 0 1 1.723-1.284c.698-.276 1.448-.355 2.25-.238.813.119 1.505.403 2.075.853.57.449.982 1.027 1.235 1.732.265.696.334 1.477.208 2.343a1.981 1.981 0 0 1-.048.219 1.86 1.86 0 0 1-.051.235l-7.14-1.042.159-1.092 6.349.926-.673.29a2.857 2.857 0 0 0-.122-1.489 2.503 2.503 0 0 0-.823-1.123c-.366-.301-.818-.491-1.356-.569a2.746 2.746 0 0 0-1.462.158 2.464 2.464 0 0 0-1.111.857c-.294.388-.481.857-.561 1.405l-.037.254a3.01 3.01 0 0 0 .16 1.559c.201.472.516.862.945 1.173.429.31.944.51 1.546.597.496.073.957.054 1.383-.057a2.955 2.955 0 0 0 1.187-.603l.696 1.105a3.713 3.713 0 0 1-1.573.805c-.593.151-1.238.175-1.935.073Zm5.972.775 1.224-8.392 1.457.213-.333 2.28-.059-.591a2.603 2.603 0 0 1 1.366-1.159c.593-.226 1.291-.28 2.093-.163l-.215 1.472a1.209 1.209 0 0 0-.187-.044l-.159-.023c-.812-.118-1.492.031-2.038.447-.545.416-.885 1.083-1.019 2.002l-.61 4.179-1.52-.221Zm7.777-5.301a1.078 1.078 0 0 1-.716-.412 1.088 1.088 0 0 1-.201-.838c.046-.316.19-.56.43-.729.24-.17.508-.233.804-.19a.998.998 0 0 1 .684.407c.182.231.25.505.204.822a1.091 1.091 0 0 1-.432.745c-.23.172-.488.236-.773.195Zm-.933 6.396a1.074 1.074 0 0 1-.716-.412 1.085 1.085 0 0 1-.201-.837c.046-.317.189-.56.43-.73.24-.17.508-.233.804-.19.285.042.513.177.684.407.182.231.25.505.203.822-.046.317-.19.565-.432.746a1 1 0 0 1-.772.194Z" fill="#24222F"/><defs><filter id="a" x="-21.664" y=".338" width="320.516" height="331.502" filterUnits="userSpaceOnUse" color-interpolation-filters="sRGB"><feFlood flood-opacity="0" result="BackgroundImageFix"/><feColorMatrix in="SourceAlpha" values="0 0 0 0 0 0 0 0 0 0 0 0 0 0 0 0 0 0 127 0" result="hardAlpha"/><feOffset dy="27"/><feGaussianBlur stdDeviation="22.5"/><feComposite in2="hardAlpha" operator="out"/><feColorMatrix values="0 0 0 0 0 0 0 0 0 0 0 0 0 0 0 0 0 0 0.1 0"/><feBlend in2="BackgroundImageFix" result="effect1_dropShadow_898_2818"/><feBlend in="SourceGraphic" in2="effect1_dropShadow_898_2818" result="shape"/></filter></defs></svg>