<svg width="414" height="8579" fill="none" xmlns="http://www.w3.org/2000/svg"><g clip-path="url(#a)"><g filter="url(#b)"><circle cx="390.492" cy="634.594" r="266.594" fill="#8CFFF1"/></g><g filter="url(#c)"><path d="M-662.986 5760.4c-109.274 202.82 232.676 164.09 419.435 81.86 19.559 90.44 98.401 234.23 257.293 85.85 198.616-185.48 221.091-75.7 66.026-221.37-155.065-145.68-136.911-81.23-376.368-162-239.456-80.76-257.113 12.84-366.386 215.66Z" fill="#52F5FF"/></g><g filter="url(#d)"><path d="M678.577 3232.31c-250.775-167.77-213.296 373.38-116.237 667.27-114.039 33.46-296.89 162.37-115.985 410.29 226.132 309.9 87.755 348.51 275.441 98.69 187.687-249.81 106.283-219.28 215.318-601.15 109.036-381.86-7.763-407.33-258.537-575.1Z" fill="#6AFFD2"/></g><g filter="url(#e)"><path d="M584.349 7149.17c-274.151-74.72-185.335 201.97-58.002 348.68-114.494 22.5-291.099 97.27-81.565 216.46 261.916 148.98 122.801 175.25 293.183 38.04 170.381-137.21 89.269-117.74 166.303-319.25 77.034-201.51-45.767-209.21-319.919-283.93Z" fill="#6AFFD2"/></g></g><defs><filter id="b" x="-323.102" y="-79" width="1427.19" height="1427.19" filterUnits="userSpaceOnUse" color-interpolation-filters="sRGB"><feFlood flood-opacity="0" result="BackgroundImageFix"/><feBlend in="SourceGraphic" in2="BackgroundImageFix" result="shape"/><feGaussianBlur stdDeviation="223.5" result="effect1_foregroundBlur_993_2437"/></filter><filter id="c" x="-1284.07" y="4915.82" width="2065.53" height="1676.34" filterUnits="userSpaceOnUse" color-interpolation-filters="sRGB"><feFlood flood-opacity="0" result="BackgroundImageFix"/><feBlend in="SourceGraphic" in2="BackgroundImageFix" result="shape"/><feGaussianBlur stdDeviation="300" result="effect1_foregroundBlur_993_2437"/></filter><filter id="d" x="70.066" y="2900.72" width="1207.93" height="1971.54" filterUnits="userSpaceOnUse" color-interpolation-filters="sRGB"><feFlood flood-opacity="0" result="BackgroundImageFix"/><feBlend in="SourceGraphic" in2="BackgroundImageFix" result="shape"/><feGaussianBlur stdDeviation="150" result="effect1_foregroundBlur_993_2437"/></filter><filter id="e" x="-320.652" y="6468.6" width="1915.55" height="2041.4" filterUnits="userSpaceOnUse" color-interpolation-filters="sRGB"><feFlood flood-opacity="0" result="BackgroundImageFix"/><feBlend in="SourceGraphic" in2="BackgroundImageFix" result="shape"/><feGaussianBlur stdDeviation="334" result="effect1_foregroundBlur_993_2437"/></filter><clipPath id="a"><path fill="#fff" d="M0 0h414v8579H0z"/></clipPath></defs></svg>