<svg width="768" height="10265" fill="none" xmlns="http://www.w3.org/2000/svg"><g clip-path="url(#a)"><g filter="url(#b)"><circle cx="528.419" cy="633.099" r="300.099" fill="#8CFFF1"/></g><g filter="url(#c)"><path d="M-743.451 6070.09c-123.006 228.31 261.918 184.72 472.148 92.15 22.018 101.81 110.768 263.67 289.63 96.64 223.576-208.79 248.875-85.21 74.323-249.19-174.553-163.99-154.118-91.44-423.669-182.35-269.55-90.92-289.426 14.45-412.432 242.75Z" fill="#52F5FF"/></g><g filter="url(#d)"><path d="M1621.89 4228.39c-150-304.72-418.12 243.87-488.97 585-130-31.59-380.814-8.88-344.049 334.64 45.956 429.39-110.667 389.12 212.929 251.27 323.59-137.84 227.06-153.91 548.33-464.76 321.27-310.85 221.76-401.43 71.76-706.15Z" fill="#6AFFD2"/></g><g filter="url(#e)"><path d="M-78.032 3269.07c-149.995-304.72-418.122 243.87-488.972 585-130.001-31.59-380.812-8.88-344.047 334.63 45.957 429.4-110.669 389.13 212.928 251.28 323.595-137.84 227.058-153.91 548.33-464.76 321.272-310.85 221.756-401.43 71.761-706.15Z" fill="#6AFFD2"/></g><g filter="url(#f)"><path d="M982.201 7962.1c-308.605-84.11-208.627 227.35-65.291 392.5-128.884 25.32-327.683 109.5-91.817 243.66 294.837 167.71 138.235 197.28 330.027 42.82 191.8-154.45 100.49-132.53 187.21-359.37 86.71-226.84-51.52-235.5-360.129-319.61Z" fill="#6AFFD2"/></g></g><defs><filter id="b" x="-218.68" y="-114" width="1494.2" height="1494.2" filterUnits="userSpaceOnUse" color-interpolation-filters="sRGB"><feFlood flood-opacity="0" result="BackgroundImageFix"/><feBlend in="SourceGraphic" in2="BackgroundImageFix" result="shape"/><feGaussianBlur stdDeviation="223.5" result="effect1_foregroundBlur_993_2436"/></filter><filter id="c" x="-1367.18" y="5194.78" width="2174.31" height="1736.21" filterUnits="userSpaceOnUse" color-interpolation-filters="sRGB"><feFlood flood-opacity="0" result="BackgroundImageFix"/><feBlend in="SourceGraphic" in2="BackgroundImageFix" result="shape"/><feGaussianBlur stdDeviation="300" result="effect1_foregroundBlur_993_2436"/></filter><filter id="d" x="117.23" y="3471.43" width="2313.66" height="2690.64" filterUnits="userSpaceOnUse" color-interpolation-filters="sRGB"><feFlood flood-opacity="0" result="BackgroundImageFix"/><feBlend in="SourceGraphic" in2="BackgroundImageFix" result="shape"/><feGaussianBlur stdDeviation="334" result="effect1_foregroundBlur_993_2436"/></filter><filter id="e" x="-1582.69" y="2512.11" width="2313.66" height="2690.64" filterUnits="userSpaceOnUse" color-interpolation-filters="sRGB"><feFlood flood-opacity="0" result="BackgroundImageFix"/><feBlend in="SourceGraphic" in2="BackgroundImageFix" result="shape"/><feGaussianBlur stdDeviation="334" result="effect1_foregroundBlur_993_2436"/></filter><filter id="f" x="47.414" y="7279.95" width="1988.39" height="2130.05" filterUnits="userSpaceOnUse" color-interpolation-filters="sRGB"><feFlood flood-opacity="0" result="BackgroundImageFix"/><feBlend in="SourceGraphic" in2="BackgroundImageFix" result="shape"/><feGaussianBlur stdDeviation="334" result="effect1_foregroundBlur_993_2436"/></filter><clipPath id="a"><path fill="#fff" d="M0 0h768v10265H0z"/></clipPath></defs></svg>