<svg width="1280" height="9422" fill="none" xmlns="http://www.w3.org/2000/svg"><g clip-path="url(#a)"><g filter="url(#b)"><circle cx="881.067" cy="460.567" r="318.567" fill="#8CFFF1"/></g><g filter="url(#c)"><path d="M-1014.7 6585.66c-130.58 242.36 278.033 196.08 501.2 97.82 23.373 108.07 117.585 279.89 307.454 102.58 237.336-221.63 264.192-90.45 78.897-264.53-185.294-174.07-163.603-97.05-449.741-193.57-286.139-96.51-307.239 15.34-437.81 257.7Z" fill="#52F5FF"/></g><g filter="url(#d)"><path d="M2368.79 4630.61c-159.23-323.47-443.86 258.88-519.07 621-138-33.53-404.24-9.42-365.22 355.24 48.79 455.82-117.47 413.07 226.04 266.74 343.51-146.33 241.03-163.39 582.07-493.37 341.05-329.98 235.41-426.13 76.18-749.61Z" fill="#6AFFD2"/></g><g filter="url(#e)"><path d="M-383.707 3612.25c-159.227-323.47-443.854 258.88-519.065 621-137.998-33.53-404.248-9.42-365.218 355.24 48.78 455.82-117.48 413.07 226.03 266.74 343.51-146.33 241.032-163.39 582.076-493.37s235.403-426.13 76.177-749.61Z" fill="#6AFFD2"/></g><g filter="url(#f)"><path d="M1232.21 8594.1c-327.602-89.28-221.47 241.34-69.31 416.66-136.82 26.88-347.853 116.24-97.47 258.66 312.98 178.03 146.74 209.41 350.34 45.45 203.6-163.96 106.67-140.69 198.72-381.49 92.06-240.8-54.69-249.99-382.28-339.28Z" fill="#6AFFD2"/></g></g><defs><filter id="b" x="115.5" y="-305" width="1531.13" height="1531.13" filterUnits="userSpaceOnUse" color-interpolation-filters="sRGB"><feFlood flood-opacity="0" result="BackgroundImageFix"/><feBlend in="SourceGraphic" in2="BackgroundImageFix" result="shape"/><feGaussianBlur stdDeviation="223.5" result="effect1_foregroundBlur_993_2435"/></filter><filter id="c" x="-1639.89" y="5693.4" width="2234.27" height="1769.21" filterUnits="userSpaceOnUse" color-interpolation-filters="sRGB"><feFlood flood-opacity="0" result="BackgroundImageFix"/><feBlend in="SourceGraphic" in2="BackgroundImageFix" result="shape"/><feGaussianBlur stdDeviation="300" result="effect1_foregroundBlur_993_2435"/></filter><filter id="d" x="812.641" y="3868.18" width="2373.82" height="2774.01" filterUnits="userSpaceOnUse" color-interpolation-filters="sRGB"><feFlood flood-opacity="0" result="BackgroundImageFix"/><feBlend in="SourceGraphic" in2="BackgroundImageFix" result="shape"/><feGaussianBlur stdDeviation="334" result="effect1_foregroundBlur_993_2435"/></filter><filter id="e" x="-1939.86" y="2849.82" width="2373.82" height="2774.01" filterUnits="userSpaceOnUse" color-interpolation-filters="sRGB"><feFlood flood-opacity="0" result="BackgroundImageFix"/><feBlend in="SourceGraphic" in2="BackgroundImageFix" result="shape"/><feGaussianBlur stdDeviation="334" result="effect1_foregroundBlur_993_2435"/></filter><filter id="f" x="281" y="7911.08" width="2028.54" height="2178.92" filterUnits="userSpaceOnUse" color-interpolation-filters="sRGB"><feFlood flood-opacity="0" result="BackgroundImageFix"/><feBlend in="SourceGraphic" in2="BackgroundImageFix" result="shape"/><feGaussianBlur stdDeviation="334" result="effect1_foregroundBlur_993_2435"/></filter><clipPath id="a"><path fill="#fff" d="M0 0h1280v9422H0z"/></clipPath></defs></svg>