<svg width="338" height="256" fill="none" xmlns="http://www.w3.org/2000/svg"><g filter="url(#a)"><rect x="44.988" y="4" width="276.247" height="180.004" rx="10" transform="rotate(8.3 44.988 4)" fill="#190C39"/></g><g clip-path="url(#b)"><path d="M155.888 131.51c.819-.338 1.751-.403 2.655-.27a4.604 4.604 0 0 1 1.94.745c.608.395 1.094.925 1.472 1.49l1.898-1.4a6.374 6.374 0 0 0-2.093-2.141 8.271 8.271 0 0 0-3.373-1.11 7.811 7.811 0 0 0-3.502.45 7.307 7.307 0 0 0-3.056 2.298c-.829 1.099-1.321 2.35-1.52 3.695-.199 1.345-.089 2.685.386 3.977a7.177 7.177 0 0 0 2.212 3.076c1.058.818 2.311 1.36 3.623 1.503a8.509 8.509 0 0 0 3.199-.139 6.518 6.518 0 0 0 2.623-1.445l-1.413-1.889a4.706 4.706 0 0 1-1.847 1.051 4.995 4.995 0 0 1-2.123.145c-.903-.134-1.727-.459-2.463-1.026-.686-.56-1.2-1.246-1.491-2.053-.284-.856-.395-1.84-.262-2.737a5.607 5.607 0 0 1 1.042-2.544c.577-.78 1.274-1.339 2.093-1.676Zm-.071-17.218 7.024 1.038-.92 6.227 2.509.371 2.149-14.548-2.509-.37-.883 5.978-7.024-1.037.883-5.979-2.509-.371-2.149 14.548 2.509.371.92-6.228Zm11.723 8.095 2.509.371 2.149-14.548-2.509-.37-2.149 14.547Zm15.299-11.943a6.547 6.547 0 0 0-2.972-1.05l-4.516-.667-2.141 14.498 2.508.37.619-4.184 2.006.296a8.05 8.05 0 0 0 3.149-.146c.912-.272 1.703-.766 2.272-1.497a5.92 5.92 0 0 0 1.107-2.636 5.924 5.924 0 0 0-.297-2.844c-.327-.914-.941-1.616-1.735-2.14Zm-1.689 6.572c-.625.417-1.515.54-2.619.377l-1.856-.274.854-5.78 1.856.275c1.104.163 1.92.538 2.398 1.118.479.579.677 1.321.537 2.268-.14.946-.494 1.607-1.17 2.016Zm26.462-3.524-8.915 13.498 2.86.422 1.998-3.115 7.526 1.111 1.012 3.561 2.91.429-4.624-15.548-2.76-.407-.007.049Zm-2.787 8.803 3.744-5.912 1.875 6.742-5.619-.83Zm-27.563 10.285c-1.058-.818-2.318-1.31-3.673-1.51-1.355-.2-2.661-.037-3.953.383-1.199.485-2.285 1.241-3.057 2.298-.828 1.099-1.321 2.35-1.519 3.695-.199 1.345-.039 2.693.386 3.977.44 1.185 1.254 2.273 2.262 3.083 1.058.819 2.318 1.31 3.673 1.51 1.355.2 2.661.037 3.953-.383a7.31 7.31 0 0 0 3.057-2.298c.828-1.099 1.321-2.35 1.52-3.695.198-1.345.038-2.692-.387-3.977a7.307 7.307 0 0 0-2.262-3.083Zm-.945 9.176a5.104 5.104 0 0 1-1.978 1.592c-.819.337-1.702.41-2.554.284-.853-.126-1.67-.501-2.363-1.011-.687-.559-1.2-1.246-1.434-2.095a5.943 5.943 0 0 1-.262-2.737 5.489 5.489 0 0 1 1.042-2.544 5.093 5.093 0 0 1 1.978-1.591c.819-.338 1.702-.411 2.555-.285.853.126 1.669.501 2.362 1.011.687.559 1.2 1.246 1.434 2.095.284.857.402 1.791.262 2.737a5.94 5.94 0 0 1-1.042 2.544Zm86.75 2.735-.339 2.292 4.566.674-1.81 12.256 2.558.378 1.811-12.256 4.565.674.339-2.291-11.69-1.727Zm-5.514 9.214-6.126-10.934-2.107-.311-2.149 14.548 2.558.378 1.45-9.815 6.127 10.934 2.107.311 2.149-14.548-2.559-.377-1.45 9.814Zm-61.868-19.167-5.405 7.092-3.224-8.367-3.161-.467-2.149 14.548 2.709.4 1.487-10.064 3.53 9.074 6.125-7.801-1.501 10.164 2.709.4 2.149-14.548-3.261-.481-.008.05Zm13.76 2.643a6.743 6.743 0 0 0-3.023-1.057l-4.565-.675-2.149 14.548 2.559.378.618-4.185 2.007.296c1.053.156 2.186.12 3.199-.138a4.835 4.835 0 0 0 2.322-1.49 5.93 5.93 0 0 0 1.107-2.636c.14-.947.029-1.93-.298-2.844-.377-.921-.983-1.673-1.777-2.197Zm-1.696 6.622c-.626.417-1.515.54-2.669.369l-1.907-.281.854-5.78 1.906.282c1.104.163 1.92.538 2.449 1.125.478.58.676 1.322.536 2.269-.082.904-.494 1.607-1.169 2.016Zm-13.375-20.863 1.012 3.561 2.91.43-4.624-15.549-2.76-.407-8.872 13.554 2.86.423 1.998-3.116 7.476 1.104Zm-2.462-9.018 1.875 6.743-5.619-.83 3.744-5.913Zm25.297 23.795-2.558-.378-2.149 14.548 9.733 1.438.339-2.292-7.175-1.06 1.81-12.256Zm7.141 15.869 2.558.378 2.149-14.548-2.558-.378-2.149 14.548Zm-105.275 1.198c-.465 3.495-.79 6.043-.924 7.296a.854.854 0 0 1-.073.498l-.052.349a6.985 6.985 0 0 0 0 2.087c.296-.618.499-1.3.602-1.998.037-.249.675-3.871 1.686-9.678-.057.042-.115.085-.122.135-.418.396-.792.85-1.117 1.311Zm.309-74.28c.928-.729 1.828-1.614 2.534-2.579-.534.838-2.589 3.996-1.128 4.517 1.611.544 3.541.32 7.528-3.419.702-5.445 1.301-10.193 1.781-13.787l-1.807-.267-.251-.037c-1.003-.148-2.644-.493-3.505-2.3-.939-1.971-.717-3.822-.568-5.174.236-1.951.257-5.562-1.907-7.918-1.507-1.597-5.968-3.326-10.483-2.262-1.486.34-4.509 1.37-7.467 2.308-2.693.875-6.132 1.945-7.135 1.797a86.092 86.092 0 0 0 6.742-2.262c2.98-1.087 6.126-2.252 7.669-2.634 3.079-.717 8.7-.243 11.221 2.472 2.386 2.592 2.378 6.46 2.127 8.51-.149 1.353-.341 3.004.469 4.804.748 1.536 2.253 1.758 3.156 1.891l.201.03 1.605.237.191-1.295c-1.62-.138-3.942-.379-4.629-2.67-.822-2.768 1.461-9.202-2.14-12.584-3.602-3.383-10.127-3.634-16.332-1.191-6.148 2.4-14.3 5.524-24.126 7.84-9.826 2.315-15.817 2.958-16.943 2.944-1.083.044.72 1.023 4.67 1.708 3.948.685 7.304.875 7.304.875l31.043-8.854s-26.919 8.7-29.225 9.734c-2.306 1.034-4.078 1.23-4.111 2.498-.034 1.268 1.594 1.355 6.023 1.908 4.43.552 5.443.294 7.014.069 1.571-.227 18.981-5.291 18.981-5.291s-18.733 6.04-21.536 7.662c-2.803 1.622-.19 2.67 1.51 2.972 1.748.31 6.45.75 9.251-.16 2.8-.91 11.694-4.891 11.694-4.891s-8.874 4.543-10.62 5.609c-1.41.861-2.195 1.661-2.055 2.802.245 1.462 2.675 1.668 6.056.996 0 0 3.48-.656 4.897-1.567 1.423-.96 5.392-3.53 5.392-3.53s-4.798 3.669-6.124 5.356c-1.275 1.696-1.542 2.114-1.195 3.235.482 1.598 6.028.84 7.769-.533 1.287-1.082 2.532-2.222 3.692-3.476 0 0-1.988 2.353-2.56 3.796-.572 1.443-1.15 2.58.282 2.944 1.569.486 3.067.758 5.045-.833Zm4.923 35.395.495-.232c.331-.155.604-.267.834-.437.438-.19.883-.429 1.322-.619.469-2.832.996-5.707 1.466-8.54a68.34 68.34 0 0 0-2.404-1.424c-.05-.007-.093-.065-.143-.072-.093-.065-.143-.072-.236-.137-.573-.288-1.088-.618-1.711-.914-.708-.41-1.424-.77-2.133-1.181-5.407 1.9-6.594 2.997-6.955 5.438-.508 3.438 2.224 5.42 6.864 9.414a52.297 52.297 0 0 1 2.601-1.296Zm-5.266-7.039s-.028-2.244 6.017-3.948c.158-.027.323-.105.481-.132-.458 3.445-.915 6.89-1.323 10.342-2.53-2.308-5.426-4.568-5.175-6.262Zm2.331 43.565c-.295.262-.59.524-.878.736 1.168 2.158.788 4.036-.375 6.359.877-.736 2.699-2.656 1.857-5.631-.185-.485-.369-.971-.604-1.464Zm.709-20.767 1.584 2.117 1.071 1.431c.043.057.135.122.221.236 3.846-2.435 7.369-4.766 7.884-8.253.405-2.74-1.886-5.624-4.251-8.01-.273.113-.546.225-.826.387-.661.31-1.265.577-1.818.852 0 0-.05-.008-.057.042-.116.085-.273.113-.388.197-.776.395-1.495.747-2.163 1.106-.393 3.353-.836 6.699-1.257 9.895Zm3.784-10.692c2.958 2.88 4.035 4.618 3.784 6.311-.257 1.744-2.415 3.513-5.867 6.057.639-3.978 1.35-8.098 2.083-12.368Zm25.385-45.173s3.056 3.607 4.141 4.939c1.085 1.33 4.235 2.916 4.235 2.916 3.041 1.62 5.428 2.125 6.085.797.513-1.044-.049-2.094-1.156-3.276-1.364-1.525-8.546-8.44-8.546-8.44s7.363 6.382 9.781 8.062c2.417 1.681 7.046 2.62 8.81 2.829 1.763.21 4.518-.045 2.304-2.409-2.214-2.363-18.401-13.561-18.401-13.561s15.144 9.924 16.641 10.552c1.439.671 2.34 1.16 6.734 1.962 4.4.752 5.933 1.131 6.318-.085.377-1.166-1.313-1.873-3.214-3.58-1.908-1.656-25.162-17.767-25.162-17.767l27.157 17.451s3.267.788 7.246 1.274c3.978.486 5.988.07 4.963-.285-1.024-.355-6.63-2.66-15.368-7.717-8.737-5.058-15.645-10.355-20.828-14.48-5.191-4.076-11.553-5.78-15.979-3.583-4.426 2.197-4.093 8.966-5.687 11.43-1.32 1.993-3.613 1.553-5.204 1.216-.059.398-.125.847-.242 1.288l1.656.244.201.03c.903.134 2.408.356 3.567-.898 1.289-1.439 1.59-3.125 1.839-4.463.352-2.035 1.463-5.74 4.496-7.532 3.198-1.87 8.716-.698 11.457.877 1.374.763 4.048 2.788 6.58 4.74a86.044 86.044 0 0 0 5.8 4.115c-1.054-.156-3.986-2.167-6.311-3.783-2.503-1.796-5.107-3.606-6.481-4.369-4.014-2.324-8.785-1.96-10.689-.866-2.803 1.622-3.777 5.093-4.114 7.029-.249 1.337-.579 3.223-2.041 4.789-1.296 1.488-2.967 1.343-4.02 1.188l-.251-.037-1.806-.267c-.631 3.572-1.423 8.24-2.311 13.557 2.772 4.838 4.648 5.675 6.305 5.564 1.549-.077.544-3.687.225-4.65a17.264 17.264 0 0 0 1.681 3.2c1.383 2.088 2.946 2.268 4.48 2.291 1.535.023 1.253-1.19 1.122-2.736-.13-1.546-1.353-4.374-1.353-4.374a47.216 47.216 0 0 0 2.529 4.395c1.27 1.817 6.353 4.197 7.283 2.756.599-.93.522-1.45-.209-3.442-.681-1.984-4.263-6.891-4.263-6.891Zm-17.064-18.099a4.07 4.07 0 0 0 2.361-.364c.718-.352 1.366-.918 1.77-1.571a4.21 4.21 0 0 0 .597-2.305c-.033-.819-.331-1.576-.795-2.255a4.142 4.142 0 0 0-1.945-1.407c-.781-.269-1.591-.337-2.395-.1-.797.188-1.53.64-2.027 1.228a4.004 4.004 0 0 0-1.034 2.138 4.08 4.08 0 0 0 .073 1.59c.127.527.362 1.02.712 1.428.342.458.7.816 1.172 1.09.422.266.959.447 1.511.528Zm8.871 32.263s.312-2.805-4.209-3.778c-4.622-.989-5.117.975-5.127 1.737.351.052.637.196.622.296-.014.1-.28.162-.581.117.141.785.71 1.785 2.57 3.078 1.538 1.042 2.348 1.11 3.324 1.102 0 0 1.008.81.853 1.857-.147.996-2.19 2.68-11.022 5.55 3.755-21.947 7.062-41.211 7.062-41.211l.501.074c.201.03.417-.04.589-.168a.803.803 0 0 0 .332-.51l.037-.25c.015-.1.029-.199-.006-.306-.036-.107-.071-.214-.164-.279a5.241 5.241 0 0 1-1.732.966c-.646.21-1.313.214-1.965.117a5.075 5.075 0 0 1-1.848-.68c-.565-.338-1.051-.868-1.379-1.425a.884.884 0 0 0-.237.22.637.637 0 0 0-.095.29l-.036.25c-.03.199.041.413.169.585a.82.82 0 0 0 .516.33l.501.075s-2.423 18.834-5.266 40.508l2.046 1.422c.093.065.236.137.329.202 1.724 1.171 3.169 2.148 4.37 3.038 4.666-1.042 9.268-2.347 10.977-4.895 3.058-4.74-1.131-8.312-1.131-8.312Zm-5.951-2.05c-.502-.074-.867-.383-.823-.682.045-.299.483-.488.984-.414.502.074.867.382.823.681-.045.3-.483.489-.984.415Zm-17.295 61.895c.475-.439.9-.885 1.368-1.274.469-2.833 1.041-6.006 1.599-9.437-.429-.572-.907-1.152-1.428-1.789-.179-.179-.3-.4-.478-.579-.214-.287-.436-.523-.657-.759-1.596 1.087-4.783 3.569-5.151 6.061-.434 2.939 1.984 6.351 3.825 8.812a4.6 4.6 0 0 1 .922-1.035Zm1.451-11.902c-.525 4.25-1.049 8.143-1.492 11.489-1.332-2.437-2.757-4.938-2.529-6.483.214-1.445 1.309-2.963 4.021-5.006Zm6.703-37.395c-9.092-6.128-10.783-8.567-10.628-9.613.154-1.046 1.354-1.53 1.354-1.53.924.34 1.727.458 3.5-.095 2.147-.65 2.989-1.493 3.35-2.203-.301-.044-.537-.181-.522-.28.014-.1.33-.156.681-.104l.008-.05c.16-.74.196-2.72-4.464-3.102-4.609-.376-5.122 2.4-5.122 2.4s-5.05 2.257-3.378 7.595c1.453 4.745 10.991 8.547 16.335 11.932 5.294 3.379 4.619 5.519 4.619 5.519-.279 1.893-4.387 3.323-7.706 4.971-3.32 1.647-10.229 4.343-10.862 8.628-.581 3.936 2.933 7.56 6.296 11.519 3.413 3.966 4.366 6.194 4.086 8.087-.382 2.59-5.212 5.441-8.06 9.449-2.848 4.008.523 11.379-.309 7.642-.882-3.745.238-6.125 2.413-8.349 2.656-2.713 7.814-5.006 8.41-9.042.5-3.387-3.878-8.107-3.878-8.107-3.767-5.036-6.209-7.942-5.885-10.134.324-2.193 2.718-3.824 9.205-6.786 6.429-2.919 10.112-3.903 10.657-7.589.478-3.239-1.009-4.629-10.1-10.758Zm-5.355-15.808c.502.074.866.382.822.68-.044.3-.482.49-.984.416-.502-.075-.866-.383-.822-.682.044-.299.482-.489.984-.415Zm115.17 56.059-8.922 13.547 2.86.422 1.998-3.115 7.526 1.111 1.012 3.561 2.91.429-4.625-15.548-2.759-.407Zm-2.794 8.852 3.744-5.912 1.875 6.742-5.619-.83Z" fill="#fff"/></g><defs><clipPath id="b"><path fill="#fff" transform="rotate(8.403 -139.483 479.809)" d="M0 0h221.309v134.127H0z"/></clipPath><filter id="a" x=".34" y=".338" width="336.664" height="255.325" filterUnits="userSpaceOnUse" color-interpolation-filters="sRGB"><feFlood flood-opacity="0" result="BackgroundImageFix"/><feColorMatrix in="SourceAlpha" values="0 0 0 0 0 0 0 0 0 0 0 0 0 0 0 0 0 0 127 0" result="hardAlpha"/><feOffset dy="15"/><feGaussianBlur stdDeviation="10"/><feComposite in2="hardAlpha" operator="out"/><feColorMatrix values="0 0 0 0 0 0 0 0 0 0 0 0 0 0 0 0 0 0 0.11 0"/><feBlend in2="BackgroundImageFix" result="effect1_dropShadow_547_4406"/><feBlend in="SourceGraphic" in2="effect1_dropShadow_547_4406" result="shape"/></filter></defs></svg>