<svg width="164" height="39" fill="none" xmlns="http://www.w3.org/2000/svg"><g clip-path="url(#a)"><path d="m45.308 16.261-3.492 6.068H65.95V16.26H45.308Z" fill="url(#b)"/><path d="M53.95 30.628h6.262L60.265.206l-6.316 7.06v23.362Z" fill="url(#c)"/><path d="M53.202.206 37.898 16.674l4.01 5.656L60.267.206h-7.065Z" fill="url(#d)"/><path d="m57.7 34.558 5.638-6.286a.787.787 0 0 0-.586-1.312H51.476a.787.787 0 0 0-.587 1.312l5.639 6.286c.313.35.858.35 1.172 0Z" fill="url(#e)"/><path d="M72.172 29.896h-2.103l-.435.989h-.583l1.791-3.96h.56l1.797 3.96h-.595l-.432-.99Zm-.199-.45-.852-1.94-.853 1.94h1.705ZM76.509 26.693v4.196h-.522v-.474c-.242.34-.627.51-1.069.51-.876 0-1.516-.617-1.516-1.535 0-.915.64-1.528 1.516-1.528.424 0 .797.157 1.046.48V26.69h.545v.003Zm-.54 2.697c0-.64-.435-1.05-1.006-1.05-.578 0-1.013.41-1.013 1.05 0 .64.435 1.058 1.013 1.058.571 0 1.007-.42 1.007-1.058ZM80.193 27.894 78.88 30.89h-.554l-1.311-2.997h.565l1.03 2.404 1.052-2.404h.53ZM82.977 29.079v1.81h-.515v-.398c-.181.273-.516.43-.983.43-.678 0-1.108-.361-1.108-.883 0-.48.311-.876 1.205-.876h.859v-.107c0-.459-.267-.722-.803-.722-.355 0-.719.124-.95.322l-.225-.408c.31-.249.758-.385 1.238-.385.82 0 1.282.397 1.282 1.217Zm-.542.891v-.417h-.838c-.536 0-.69.21-.69.465 0 .299.249.485.66.485.409 0 .732-.186.868-.533ZM86.831 29.161v1.724h-.542v-1.662c0-.589-.293-.876-.808-.876-.578 0-.95.343-.95.995v1.543h-.543V27.89h.521v.453c.22-.305.605-.48 1.081-.48.726-.003 1.241.415 1.241 1.297ZM87.574 29.39c0-.895.66-1.528 1.584-1.528.536 0 .983.222 1.223.64l-.411.266a.935.935 0 0 0-.814-.43c-.59 0-1.031.412-1.031 1.052 0 .651.441 1.057 1.03 1.057a.935.935 0 0 0 .815-.43l.411.261c-.237.418-.684.646-1.223.646-.92-.003-1.584-.643-1.584-1.534ZM93.735 29.571h-2.431c.068.527.491.877 1.086.877.35 0 .646-.119.865-.361l.3.349c-.273.317-.685.486-1.182.486-.969 0-1.611-.64-1.611-1.534 0-.889.64-1.528 1.504-1.528.865 0 1.48.622 1.48 1.542 0 .05-.005.119-.011.17Zm-2.431-.39h1.921a.934.934 0 0 0-.962-.86.933.933 0 0 0-.96.86ZM98.672 27.892l-1.454 3.296c-.267.634-.61.832-1.07.832-.286 0-.582-.095-.77-.278l.232-.409c.148.142.335.22.536.22.26 0 .423-.12.571-.466l.095-.21-1.323-2.99h.565l1.045 2.398 1.037-2.399h.536v.006ZM98.82 29.39c0-.895.66-1.528 1.561-1.528.9 0 1.554.634 1.554 1.528s-.657 1.534-1.554 1.534c-.9-.003-1.56-.643-1.56-1.534Zm2.568 0c0-.64-.43-1.051-1.007-1.051-.578 0-1.013.411-1.013 1.05 0 .64.435 1.058 1.013 1.058.577 0 1.007-.42 1.007-1.057ZM105.482 27.892v2.997h-.515v-.453c-.219.31-.595.485-1.019.485-.776 0-1.288-.423-1.288-1.306V27.89h.542v1.664c0 .59.293.883.808.883.566 0 .927-.35.927-.995v-1.55h.545ZM108.126 27.862v.527c-.044-.006-.085-.006-.124-.006-.583 0-.944.355-.944 1.013v1.492h-.542v-2.997h.521v.504c.192-.352.565-.533 1.089-.533ZM72.677 36.37c0 .922-.64 1.535-1.516 1.535-.423 0-.796-.163-1.045-.486v1.549h-.542v-4.096h.521v.474c.243-.335.628-.503 1.07-.503.873 0 1.512.61 1.512 1.527Zm-.55 0c0-.633-.436-1.05-1.013-1.05-.572 0-1.007.417-1.007 1.05 0 .64.436 1.058 1.007 1.058.577 0 1.013-.42 1.013-1.057ZM76.269 36.14v1.724h-.542v-1.661c0-.59-.294-.877-.809-.877-.577 0-.95.347-.95.995v1.543h-.542v-4.196h.542v1.623c.225-.287.598-.453 1.057-.453.731.003 1.243.42 1.243 1.303ZM79.649 36.06v1.809h-.516v-.397c-.18.273-.515.43-.983.43-.678 0-1.107-.362-1.107-.883 0-.48.31-.877 1.205-.877h.859v-.106c0-.46-.267-.723-.803-.723-.355 0-.72.125-.95.323l-.225-.409c.31-.248.758-.384 1.238-.384.82 0 1.282.396 1.282 1.217Zm-.542.891v-.418h-.838c-.536 0-.69.21-.69.465 0 .3.249.486.66.486.409 0 .732-.187.868-.533ZM82.271 34.843v.527c-.044-.006-.086-.006-.124-.006-.584 0-.945.355-.945 1.013v1.492h-.542v-2.997h.521v.504c.19-.353.563-.533 1.09-.533ZM87.915 36.142v1.724h-.542v-1.661c0-.59-.281-.877-.776-.877-.541 0-.9.347-.9.995v1.543h-.542v-1.661c0-.59-.284-.877-.775-.877-.542 0-.9.347-.9.995v1.543h-.543v-2.997h.522v.447c.216-.305.583-.474 1.033-.474.46 0 .844.181 1.04.554.225-.34.645-.553 1.154-.553.732 0 1.23.417 1.23 1.3ZM91.293 36.06v1.809h-.515v-.397c-.18.273-.515.43-.983.43-.678 0-1.108-.362-1.108-.883 0-.48.311-.877 1.206-.877h.858v-.106c0-.46-.266-.723-.802-.723-.355 0-.72.125-.95.323l-.226-.409c.311-.248.758-.384 1.238-.384.817 0 1.282.396 1.282 1.217Zm-.542.891v-.418h-.838c-.535 0-.69.21-.69.465 0 .3.25.486.66.486.41 0 .732-.187.868-.533ZM92.04 36.37c0-.894.66-1.527 1.583-1.527.536 0 .983.219 1.223.64l-.411.266a.935.935 0 0 0-.815-.43c-.589 0-1.03.412-1.03 1.051 0 .652.441 1.058 1.03 1.058a.935.935 0 0 0 .815-.43l.411.26c-.237.418-.684.646-1.223.646-.924-.003-1.584-.642-1.584-1.534ZM98.156 34.87l-1.454 3.297c-.266.633-.61.832-1.069.832-.287 0-.583-.095-.77-.279l.231-.408c.148.142.335.219.536.219.26 0 .424-.119.572-.465l.094-.21-1.323-2.991h.565l1.046 2.398 1.036-2.398h.536v.006ZM104.723 34.872l-1.119 2.997h-.521l-.865-2.274-.876 2.274h-.522l-1.113-2.997h.515l.871 2.387.906-2.387h.459l.888 2.399.895-2.399h.482ZM105.172 33.942c0-.198.157-.355.367-.355s.367.154.367.346a.355.355 0 0 1-.367.362.355.355 0 0 1-.367-.353Zm.098.93h.541v2.997h-.541v-2.997ZM108.535 37.693c-.163.142-.411.21-.657.21-.604 0-.951-.334-.951-.938v-1.647h-.509v-.447h.509v-.657h.542v.657h.859v.447h-.859v1.623c0 .323.169.503.471.503.157 0 .311-.05.423-.142l.172.391ZM112.038 36.14v1.724h-.542v-1.661c0-.59-.293-.877-.808-.877-.578 0-.951.347-.951.995v1.543h-.542v-4.196h.542v1.623c.225-.287.598-.453 1.057-.453.729.003 1.244.42 1.244 1.303ZM117.357 34.87v2.997h-.515v-.453c-.219.31-.595.485-1.019.485-.776 0-1.288-.423-1.288-1.306v-1.726h.542v1.661c0 .59.293.883.808.883.566 0 .927-.35.927-.995v-1.55h.545v.004ZM118.016 37.55l.225-.43c.254.181.66.312 1.051.312.503 0 .714-.154.714-.409 0-.672-1.896-.092-1.896-1.285 0-.536.48-.9 1.25-.9.391 0 .832.1 1.093.272l-.231.43a1.575 1.575 0 0 0-.865-.237c-.474 0-.708.174-.708.411 0 .708 1.901.13 1.901 1.294 0 .542-.497.889-1.294.889-.5.003-.992-.148-1.24-.347ZM14.196 22.284l-4.297-6.207H5.158v6.207H0V0h9.644c5.952 0 9.678 3.089 9.678 8.084 0 3.344-1.685 5.793-4.584 7.036l4.998 7.164h-5.54ZM9.36 4.202H5.158v7.768H9.36c3.15 0 4.744-1.463 4.744-3.883C14.1 5.635 12.51 4.202 9.36 4.202ZM33.928 22.285l-3.755-5.253-3.885 5.253h-5.413l6.588-8.626-6.366-8.5h5.57l3.63 5 3.723-5h5.285l-6.366 8.372 6.62 8.754h-5.631ZM82.371 22.284l-4.296-6.207H73.33v6.207h-5.155V0h9.644c5.952 0 9.677 3.089 9.677 8.084 0 3.344-1.688 5.793-4.584 7.036l4.999 7.164h-5.54ZM77.534 4.202h-4.202v7.768h4.202c3.15 0 4.744-1.463 4.744-3.883 0-2.452-1.593-3.885-4.744-3.885ZM89.945 13.718c0-5.158 3.977-8.818 9.423-8.818 5.445 0 9.389 3.66 9.389 8.818 0 5.159-3.947 8.819-9.39 8.819-5.442 0-9.422-3.66-9.422-8.819Zm13.784 0c0-2.96-1.877-4.744-4.361-4.744-2.485 0-4.395 1.783-4.395 4.744 0 2.962 1.91 4.744 4.395 4.744 2.484 0 4.361-1.782 4.361-4.744ZM129.311 5.157v17.125H124.6v-2.037c-1.306 1.496-3.216 2.292-5.315 2.292-4.297 0-7.32-2.42-7.32-7.705V5.157h4.966v8.947c0 2.863 1.273 4.14 3.47 4.14 2.292 0 3.947-1.466 3.947-4.617v-8.47h4.963ZM144.969 21.458c-1.019.731-2.514 1.084-4.042 1.084-4.045 0-6.399-2.07-6.399-6.145V9.361h-2.641V5.538h2.641v-4.17h4.966v4.17h4.267v3.82h-4.267v6.971c0 1.463.796 2.26 2.132 2.26.731 0 1.466-.223 2.008-.637l1.335 3.506ZM163.907 15.122h-12.955c.476 2.132 2.291 3.438 4.9 3.438 1.815 0 3.121-.542 4.3-1.655l2.641 2.863c-1.59 1.816-3.98 2.769-7.068 2.769-5.919 0-9.772-3.725-9.772-8.819 0-5.126 3.915-8.818 9.135-8.818 5.028 0 8.913 3.376 8.913 8.88 0 .389-.062.927-.094 1.342Zm-13.021-2.896h8.437c-.35-2.165-1.972-3.566-4.202-3.566-2.26 0-3.885 1.369-4.235 3.566Z" fill="#fff"/></g><defs><linearGradient id="b" x1="66.104" y1="21.451" x2="42.698" y2="17.324" gradientUnits="userSpaceOnUse"><stop stop-color="#77E2D4"/><stop offset=".177" stop-color="#77E2D4"/><stop offset=".206" stop-color="#77E2D4"/><stop offset=".239" stop-color="#66D4C9"/><stop offset=".305" stop-color="#3AAFAD"/><stop offset=".357" stop-color="#138F95"/><stop offset=".628" stop-color="#77E2D4"/><stop offset=".729" stop-color="#75E2D3"/><stop offset=".765" stop-color="#6EE1D0"/><stop offset=".791" stop-color="#63DFCA"/><stop offset=".812" stop-color="#52DDC1"/><stop offset=".83" stop-color="#3CDAB7"/><stop offset=".846" stop-color="#21D6A9"/><stop offset=".86" stop-color="#02D29A"/><stop offset=".86" stop-color="#00D299"/><stop offset="1" stop-color="#138F95"/></linearGradient><linearGradient id="c" x1="62.359" y1="29.845" x2="52.588" y2="3" gradientUnits="userSpaceOnUse"><stop stop-color="#138F95"/><stop offset=".141" stop-color="#77E2D4"/><stop offset=".453" stop-color="#75E2D3"/><stop offset=".566" stop-color="#6EE1D0"/><stop offset=".646" stop-color="#63DFCA"/><stop offset=".711" stop-color="#52DDC1"/><stop offset=".766" stop-color="#3CDAB7"/><stop offset=".815" stop-color="#21D6A9"/><stop offset=".858" stop-color="#02D29A"/><stop offset=".86" stop-color="#00D299"/><stop offset="1" stop-color="#138F95"/></linearGradient><linearGradient id="d" x1="37.899" y1="11.268" x2="60.267" y2="11.268" gradientUnits="userSpaceOnUse"><stop stop-color="#77E2D4"/><stop offset=".104" stop-color="#7EE4D7"/><stop offset=".259" stop-color="#93EBDE"/><stop offset=".445" stop-color="#B4F6EA"/><stop offset=".5" stop-color="#BFFAEE"/><stop offset="1" stop-color="#77E2D4"/></linearGradient><linearGradient id="e" x1="63.539" y1="30.889" x2="50.687" y2="30.889" gradientUnits="userSpaceOnUse"><stop stop-color="#77E2D4"/><stop offset=".104" stop-color="#7EE4D7"/><stop offset=".259" stop-color="#93EBDE"/><stop offset=".445" stop-color="#B4F6EA"/><stop offset=".5" stop-color="#BFFAEE"/><stop offset="1" stop-color="#77E2D4"/></linearGradient><clipPath id="a"><path fill="#fff" d="M0 0h164v39H0z"/></clipPath></defs></svg>