<svg width="130" height="31" fill="none" xmlns="http://www.w3.org/2000/svg"><g clip-path="url(#a)"><path d="m35.916 12.926-2.768 4.823h19.13v-4.823H35.916Z" fill="url(#b)"/><path d="M42.766 24.345h4.964l.042-24.18-5.006 5.61v18.57Z" fill="url(#c)"/><path d="m42.173.164-12.13 13.09 3.178 4.496L47.774.164h-5.6Z" fill="url(#d)"/><path d="m45.739 27.47 4.469-4.998a.626.626 0 0 0-.465-1.042h-8.938c-.54 0-.824.64-.465 1.042l4.469 4.998c.249.277.68.277.93 0Z" fill="url(#e)"/><path d="M57.208 23.763h-1.666l-.345.786h-.463l1.42-3.147h.444l1.425 3.147h-.472l-.343-.786Zm-.157-.358-.676-1.541-.676 1.541h1.352ZM60.646 21.217v3.336h-.413v-.377c-.193.27-.498.405-.848.405-.694 0-1.201-.49-1.201-1.22 0-.727.507-1.214 1.201-1.214.336 0 .632.125.829.381v-1.313h.432v.002Zm-.427 2.145c0-.509-.345-.836-.798-.836-.458 0-.803.327-.803.835 0 .509.345.84.803.84.453 0 .798-.333.798-.84ZM63.566 22.172l-1.04 2.382h-.44l-1.04-2.382h.45l.816 1.911.833-1.911h.42ZM65.773 23.114v1.438h-.409v-.315c-.143.216-.408.341-.78.341-.537 0-.877-.287-.877-.701 0-.382.246-.697.955-.697h.681v-.085c0-.365-.211-.574-.636-.574-.282 0-.57.099-.753.256l-.179-.325c.247-.197.601-.306.981-.306.65 0 1.017.316 1.017.968Zm-.43.708v-.331h-.664c-.425 0-.547.167-.547.37 0 .237.197.385.523.385.324 0 .58-.148.688-.424ZM68.828 23.18v1.37h-.43v-1.321c0-.469-.232-.697-.64-.697-.459 0-.754.273-.754.791v1.226h-.43v-2.38h.413v.36c.174-.242.48-.38.857-.38.575-.003.984.329.984 1.03ZM69.418 23.361c0-.71.523-1.215 1.256-1.215.425 0 .779.177.97.509l-.327.212a.74.74 0 0 0-.646-.341c-.467 0-.816.327-.816.835 0 .518.35.84.816.84.26 0 .493-.108.646-.34l.326.206c-.188.332-.542.513-.97.513-.73-.002-1.255-.51-1.255-1.219ZM74.302 23.505h-1.927c.054.419.39.697.861.697a.885.885 0 0 0 .686-.287l.237.277c-.216.252-.542.386-.937.386-.767 0-1.277-.508-1.277-1.219 0-.706.507-1.215 1.193-1.215.685 0 1.173.495 1.173 1.227 0 .04-.004.094-.009.134Zm-1.927-.31h1.523a.741.741 0 0 0-.763-.683.74.74 0 0 0-.76.682ZM78.216 22.17l-1.153 2.62c-.211.504-.483.662-.847.662-.228 0-.463-.075-.61-.221l.183-.325a.605.605 0 0 0 .424.174c.207 0 .336-.094.453-.37l.076-.167-1.05-2.377h.449l.828 1.907.822-1.907h.425v.005ZM78.332 23.361c0-.71.524-1.215 1.237-1.215.714 0 1.232.504 1.232 1.215 0 .71-.52 1.22-1.232 1.22-.713-.003-1.237-.511-1.237-1.22Zm2.035 0c0-.508-.34-.835-.798-.835s-.803.327-.803.835.345.84.803.84c.458 0 .798-.334.798-.84ZM83.612 22.17v2.382h-.408v-.36c-.174.247-.472.386-.808.386-.615 0-1.021-.336-1.021-1.038v-1.372h.43v1.323c0 .468.232.701.64.701.449 0 .735-.277.735-.79V22.17h.432ZM85.71 22.146v.42c-.035-.005-.068-.005-.098-.005-.462 0-.749.282-.749.805v1.186h-.43V22.17h.414v.4c.152-.28.448-.424.864-.424ZM57.608 28.91c0 .732-.507 1.22-1.201 1.22-.336 0-.632-.13-.829-.387v1.231h-.43V27.72h.414v.377c.192-.267.497-.4.847-.4.692 0 1.2.484 1.2 1.214Zm-.436 0c0-.504-.345-.836-.803-.836-.453 0-.798.332-.798.836 0 .508.345.84.798.84.458 0 .803-.334.803-.84ZM60.456 28.727v1.37h-.43v-1.32c0-.469-.231-.697-.64-.697-.458 0-.753.275-.753.79v1.227h-.43v-3.335h.43v1.29c.178-.229.474-.36.838-.36.58.002.986.334.986 1.035ZM63.136 28.663V30.1h-.409v-.316c-.143.217-.408.342-.779.342-.537 0-.878-.287-.878-.702 0-.38.247-.696.956-.696h.68v-.085c0-.365-.21-.574-.636-.574-.281 0-.57.098-.753.256l-.179-.325c.247-.197.601-.306.982-.306.65 0 1.016.316 1.016.968Zm-.43.708v-.332h-.664c-.425 0-.547.167-.547.37 0 .238.197.386.524.386.324 0 .58-.148.687-.424ZM65.214 27.695v.42c-.035-.005-.068-.005-.098-.005-.463 0-.749.282-.749.805V30.1h-.43v-2.382h.414v.4c.15-.28.446-.424.863-.424ZM69.688 28.729v1.37h-.43v-1.32c0-.47-.223-.698-.615-.698-.43 0-.713.276-.713.791V30.1h-.43v-1.32c0-.47-.225-.698-.615-.698-.43 0-.713.276-.713.791V30.1h-.43v-2.383h.413v.356c.172-.242.463-.377.82-.377.363 0 .669.144.823.44.179-.27.512-.44.916-.44.58 0 .974.332.974 1.034ZM72.366 28.663V30.1h-.408v-.316c-.143.217-.409.342-.78.342-.537 0-.877-.287-.877-.702 0-.38.246-.696.955-.696h.68v-.085c0-.365-.21-.574-.635-.574-.282 0-.57.098-.754.256l-.178-.325c.246-.197.6-.306.981-.306.648 0 1.016.316 1.016.968Zm-.43.708v-.332h-.664c-.424 0-.546.167-.546.37 0 .238.197.386.523.386.324 0 .58-.148.688-.424ZM72.957 28.91c0-.711.524-1.215 1.256-1.215.425 0 .78.174.97.509l-.327.212a.741.741 0 0 0-.645-.342c-.468 0-.817.327-.817.836 0 .518.35.84.816.84.261 0 .493-.108.646-.341l.326.207c-.188.332-.542.513-.97.513-.731-.002-1.255-.51-1.255-1.22ZM77.805 27.718l-1.152 2.62c-.211.503-.484.66-.847.66-.228 0-.463-.075-.61-.22l.182-.325a.606.606 0 0 0 .425.174c.207 0 .336-.094.453-.37l.075-.167-1.049-2.377h.449l.828 1.906.822-1.906h.424v.005ZM83.011 27.719l-.887 2.382h-.413l-.685-1.808-.695 1.808h-.413l-.883-2.382h.409l.69 1.897.718-1.897h.364l.704 1.906.709-1.906h.382ZM83.367 26.98c0-.158.125-.283.291-.283.167 0 .291.123.291.276a.282.282 0 0 1-.29.287.282.282 0 0 1-.292-.28Zm.078.739h.43V30.1h-.43v-2.382ZM86.034 29.961c-.13.113-.327.167-.521.167-.48 0-.754-.266-.754-.746v-1.309h-.403v-.355h.403v-.523h.43v.523h.68v.355h-.68v1.29c0 .257.134.4.373.4.124 0 .246-.04.336-.113l.136.311ZM88.808 28.727v1.37h-.43v-1.32c0-.469-.232-.697-.64-.697-.458 0-.754.275-.754.79v1.227h-.43v-3.335h.43v1.29c.179-.229.474-.36.838-.36.578.002.986.334.986 1.035ZM93.026 27.717V30.1h-.408v-.36c-.174.247-.472.386-.808.386-.615 0-1.02-.336-1.02-1.038v-1.372h.429v1.32c0 .469.232.702.64.702.449 0 .735-.278.735-.791v-1.231h.432v.002ZM93.547 29.848l.178-.342c.202.144.524.247.834.247.399 0 .565-.122.565-.325 0-.534-1.502-.072-1.502-1.021 0-.426.38-.716.99-.716.31 0 .66.08.867.217l-.183.341a1.243 1.243 0 0 0-.686-.188c-.375 0-.56.139-.56.327 0 .563 1.506.104 1.506 1.029 0 .43-.394.706-1.026.706-.396.002-.786-.118-.983-.276ZM11.253 17.713l-3.406-4.934H4.089v4.934H0V0h7.645c4.718 0 7.67 2.455 7.67 6.426 0 2.657-1.335 4.604-3.633 5.593l3.962 5.694h-4.391ZM7.42 3.34H4.089v6.174h3.33c2.498 0 3.76-1.163 3.76-3.086C11.179 4.48 9.918 3.34 7.42 3.34ZM26.893 17.714l-2.976-4.176-3.08 4.176h-4.29l5.223-6.857-5.047-6.755h4.415l2.878 3.973 2.95-3.973h4.19l-5.046 6.654 5.248 6.958h-4.465ZM65.296 17.713l-3.406-4.934h-3.761v4.934h-4.086V0h7.645c4.718 0 7.67 2.455 7.67 6.426 0 2.657-1.337 4.604-3.633 5.593l3.962 5.694h-4.391ZM61.46 3.34h-3.33v6.174h3.33c2.498 0 3.76-1.163 3.76-3.086 0-1.949-1.262-3.088-3.76-3.088ZM71.297 10.904c0-4.1 3.152-7.01 7.469-7.01 4.316 0 7.443 2.91 7.443 7.01s-3.129 7.01-7.443 7.01-7.47-2.91-7.47-7.01Zm10.926 0c0-2.354-1.488-3.77-3.457-3.77-1.97 0-3.484 1.416-3.484 3.77s1.514 3.771 3.484 3.771 3.457-1.417 3.457-3.77ZM102.504 4.1v13.612H98.77v-1.62c-1.035 1.19-2.55 1.822-4.214 1.822-3.406 0-5.802-1.923-5.802-6.124V4.1h3.936v7.11c0 2.277 1.01 3.291 2.751 3.291 1.817 0 3.13-1.165 3.13-3.67V4.1h3.933ZM114.913 17.056c-.807.582-1.993.862-3.204.862-3.206 0-5.072-1.645-5.072-4.884V7.44h-2.094V4.402h2.094V1.088h3.936v3.314h3.382V7.44h-3.382v5.54c0 1.163.631 1.796 1.69 1.796.58 0 1.162-.176 1.591-.506l1.059 2.787ZM129.927 12.02h-10.27c.378 1.695 1.817 2.733 3.885 2.733 1.439 0 2.474-.431 3.408-1.316l2.094 2.276c-1.26 1.443-3.155 2.201-5.603 2.201-4.692 0-7.746-2.961-7.746-7.01 0-4.074 3.103-7.01 7.242-7.01 3.985 0 7.065 2.684 7.065 7.06 0 .308-.05.736-.075 1.066Zm-10.321-2.302h6.687c-.277-1.72-1.563-2.834-3.331-2.834-1.791 0-3.079 1.087-3.356 2.834Z" fill="#3C3C3B"/></g><defs><linearGradient id="b" x1="52.401" y1="17.051" x2="33.844" y2="13.788" gradientUnits="userSpaceOnUse"><stop stop-color="#77E2D4"/><stop offset=".177" stop-color="#77E2D4"/><stop offset=".206" stop-color="#77E2D4"/><stop offset=".239" stop-color="#66D4C9"/><stop offset=".305" stop-color="#3AAFAD"/><stop offset=".357" stop-color="#138F95"/><stop offset=".628" stop-color="#77E2D4"/><stop offset=".729" stop-color="#75E2D3"/><stop offset=".765" stop-color="#6EE1D0"/><stop offset=".791" stop-color="#63DFCA"/><stop offset=".812" stop-color="#52DDC1"/><stop offset=".83" stop-color="#3CDAB7"/><stop offset=".846" stop-color="#21D6A9"/><stop offset=".86" stop-color="#02D29A"/><stop offset=".86" stop-color="#00D299"/><stop offset="1" stop-color="#138F95"/></linearGradient><linearGradient id="c" x1="49.432" y1="23.723" x2="41.649" y2="2.399" gradientUnits="userSpaceOnUse"><stop stop-color="#138F95"/><stop offset=".141" stop-color="#77E2D4"/><stop offset=".453" stop-color="#75E2D3"/><stop offset=".566" stop-color="#6EE1D0"/><stop offset=".646" stop-color="#63DFCA"/><stop offset=".711" stop-color="#52DDC1"/><stop offset=".766" stop-color="#3CDAB7"/><stop offset=".815" stop-color="#21D6A9"/><stop offset=".858" stop-color="#02D29A"/><stop offset=".86" stop-color="#00D299"/><stop offset="1" stop-color="#138F95"/></linearGradient><linearGradient id="d" x1="30.043" y1="8.957" x2="47.775" y2="8.957" gradientUnits="userSpaceOnUse"><stop stop-color="#77E2D4"/><stop offset=".104" stop-color="#7EE4D7"/><stop offset=".259" stop-color="#93EBDE"/><stop offset=".445" stop-color="#B4F6EA"/><stop offset=".5" stop-color="#BFFAEE"/><stop offset="1" stop-color="#77E2D4"/></linearGradient><linearGradient id="e" x1="50.367" y1="24.553" x2="40.179" y2="24.553" gradientUnits="userSpaceOnUse"><stop stop-color="#77E2D4"/><stop offset=".104" stop-color="#7EE4D7"/><stop offset=".259" stop-color="#93EBDE"/><stop offset=".445" stop-color="#B4F6EA"/><stop offset=".5" stop-color="#BFFAEE"/><stop offset="1" stop-color="#77E2D4"/></linearGradient><clipPath id="a"><path fill="#fff" d="M0 0h130v31H0z"/></clipPath></defs></svg>