<svg xmlns="http://www.w3.org/2000/svg" xmlns:xlink="http://www.w3.org/1999/xlink"><symbol id="bundl"><path d="M31.615 9.911c-4.955-7.28-14.631-8.85-21.633-3.506-7.001 5.343-8.658 15.56-3.703 22.842l8.295 12.19c.37.543 1.094.66 1.617.262l11.721-8.946c7.001-5.343 8.658-15.56 3.703-22.842Z" fill="#FF3C5F"/><circle cx="19.087" cy="18.724" r="6.5" transform="rotate(9.208 19.087 18.724)" fill="#fff"/></symbol><symbol id="check"><path d="M6.001.166a5.833 5.833 0 1 0 0 11.667 5.833 5.833 0 0 0 0-11.667Zm2.748 5.08L5.832 8.165a.583.583 0 0 1-.828 0l-1.75-1.75a.586.586 0 0 1 .828-.829l1.336 1.342L7.92 4.419a.586.586 0 1 1 .829.828Z" fill="#fff"/></symbol><symbol id="promo-icon-1"><path d="M23.437 20.496c3.416-10.58 17.911-14.535 26.24-7.077 8.32 6.517 7.513 20.775-1.423 26.32.389-5.821-2.056-11.592-6.288-15.319-4.861-4.459-12.248-6.017-18.529-3.926v.002ZM45.76 37.155c-.531-6.298-4.586-11.624-10.333-13.932 3.496 12.365-7.64 25.282-20.489 23.567 3.15 5.43 9.077 8.708 15.57 8.232 9.074-.553 16.136-8.95 15.25-17.867h.002Zm-20.332-1.688c-10.529-.91-18.614-11.292-16.805-21.784-9.673 5.209-10.875 20.174-2.275 26.863 7.825 6.992 21.39 4.012 25.593-5.527a19.248 19.248 0 0 1-6.51.448h-.003ZM10.93 17.992c.525 6.155 4.4 11.381 9.955 13.775-4.329-12.519 6.863-26.324 20.11-24.6-9.54-13.766-31.522-5.851-30.064 10.828v-.003Z" fill="#3C3C3B"/></symbol><symbol id="promo-icon-2"><path d="m40.56 24.957 13.95 2.728a49.505 49.505 0 0 0-.262-3.807c-.616-5.593-2.11-9.272-4.34-9.708-2.23-.436-4.997 2.41-7.678 7.358a49.159 49.159 0 0 0-1.676 3.428l.006.001ZM33.333 59.664l14.809 2.895c1.741-4.313 3.286-9.457 4.444-15.075l-17.691-3.459c-1.044 5.64-1.55 10.988-1.562 15.639ZM33.323 20.078a30.695 30.695 0 0 0-2.682 2.939l7.84 1.532a50.96 50.96 0 0 1 1.936-4.001c1.545-2.855 3.193-5.095 4.854-6.556-4.227.476-8.361 2.647-11.945 6.09l-.003-.004ZM22.563 41.614c-.973 5.664-.812 11.148.291 16l8.407 1.645c.039-4.689.556-10.027 1.596-15.632l-10.291-2.012h-.003ZM29.26 24.861c-2.85 4.08-5.065 9.1-6.298 14.713l10.292 2.012c1.148-5.583 2.679-10.723 4.409-15.081l-8.407-1.644h.003ZM54.547 29.806 39.738 26.91c-1.741 4.313-3.286 9.457-4.444 15.075l17.692 3.459c1.043-5.64 1.55-10.987 1.56-15.638ZM56.602 28.094l7.84 1.533a31.01 31.01 0 0 0-1.378-3.732c-2.027-4.537-5.038-8.109-8.775-10.142.988 1.98 1.671 4.675 2.027 7.901.15 1.382.248 2.867.287 4.437v.003ZM67.348 48.253l7.333 1.434a30.97 30.97 0 0 0-1.733-16.282l-5.717-1.118c.987 4.906 1.089 10.358.117 15.966ZM50.208 62.964l8.407 1.644c2.85-4.08 5.065-9.1 6.297-14.713L54.62 47.883c-1.147 5.584-2.678 10.724-4.408 15.082l-.004-.001ZM64.95 25.05a33.53 33.53 0 0 1 1.76 5.02l5.218 1.02a31.702 31.702 0 0 0-2.156-3.743 31.21 31.21 0 0 0-8.753-8.657c1.546 1.835 2.864 3.977 3.93 6.36ZM65.024 31.855l-8.407-1.644c-.04 4.692-.556 10.028-1.596 15.632l10.292 2.012c.973-5.667.811-11.148-.292-16h.003ZM54.561 69.39a31.452 31.452 0 0 0 2.682-2.935l-7.84-1.533a50.98 50.98 0 0 1-1.936 4.002c-1.545 2.855-3.193 5.094-4.854 6.555 4.227-.475 8.361-2.647 11.948-6.09ZM55.99 70.886c-1.884 1.809-3.914 3.296-6.036 4.41a31.195 31.195 0 0 0 14.774-7.375l-5.217-1.02a33.53 33.53 0 0 1-3.522 3.988v-.003ZM47.31 64.511l-13.95-2.727c.043 1.34.13 2.613.262 3.804.616 5.596 2.11 9.272 4.34 9.708 2.23.436 4.997-2.41 7.678-7.359a49.02 49.02 0 0 0 1.676-3.424l-.006-.002ZM60.826 65.04l5.717 1.118a30.98 30.98 0 0 0 7.738-14.43l-7.333-1.434c-1.215 5.56-3.36 10.577-6.122 14.746ZM20.528 41.218l-7.333-1.434a30.97 30.97 0 0 0 1.733 16.283l5.718 1.118c-.988-4.903-1.09-10.359-.118-15.967ZM31.88 18.583c1.883-1.81 3.914-3.297 6.036-4.411A31.196 31.196 0 0 0 23.14 21.55l5.217 1.02a33.523 33.523 0 0 1 3.522-3.987ZM31.277 61.379l-7.84-1.533c.39 1.303.85 2.547 1.38 3.729 2.026 4.54 5.034 8.111 8.77 10.14-.987-1.978-1.67-4.674-2.026-7.9a52.928 52.928 0 0 1-.287-4.437h.003ZM27.05 24.43l-5.717-1.117a30.948 30.948 0 0 0-7.738 14.43l7.333 1.434c1.215-5.56 3.36-10.577 6.123-14.747ZM22.92 64.42a33.526 33.526 0 0 1-1.762-5.02l-5.217-1.02A31.159 31.159 0 0 0 26.85 70.776c-1.546-1.832-2.864-3.974-3.93-6.36v.003Z" fill="#3C3C3B"/><path d="m78.41 51.475-2.119-.414c-1.748 8.942-6.944 16.309-13.95 21.023-7.009 4.71-15.79 6.75-24.733 5.004-8.942-1.748-16.31-6.944-21.027-13.95-4.71-7.01-6.749-15.79-5.004-24.73 1.748-8.943 6.944-16.31 13.95-21.027 7.01-4.714 15.79-6.75 24.733-5.004 8.943 1.748 16.31 6.944 21.027 13.951 4.71 7.008 6.75 15.79 5.004 24.733l4.235.828c3.951-20.21-9.225-39.795-29.438-43.747C30.88 4.19 11.297 17.368 7.342 37.58 3.39 57.789 16.567 77.37 36.78 81.323c20.21 3.952 39.791-9.225 43.746-29.434l-2.119-.415.003.001Z" fill="#3C3C3B"/></symbol><symbol id="star"><path d="m6 0 1.763 3.573 3.943.573-2.853 2.781.674 3.927L6 9l-3.527 1.854.674-3.927L.294 4.146l3.943-.573L6 0Z" fill="#FFE071"/></symbol><symbol id="tel"><path d="M31.877 30.693c-1.464.26-3.614.094-6.999-1.083-4.115-1.437-7.355-2.864-11.737-5.92-4.228-2.954-6.386-4.968-9.619-8.985C-.13 10.168-.126 7.45.202 6.23c.388-1.458 1.17-2.427 2.226-3.437a13.428 13.428 0 0 1 1.947-1.52l.192-.128c.34-.233.859-.586 1.619-.441.507.095.995.385 1.777.923 1.601 1.103 3.991 3.766 4.94 5.116.636.91 1.058 1.51 1.189 2.242.152.86-.163 1.597-.562 2.405l-.222.438c-.437.852-.525 1.09-.373 1.463.303.748 1.961 2.842 4.373 4.526 2.412 1.683 4.867 2.453 5.677 2.481.42.015.617-.153 1.288-.883.095-.104.194-.21.298-.32.695-.737 1.25-1.27 2.09-1.418h.004c.73-.13 1.411.077 2.537.415 1.471.443 4.88 1.736 6.474 2.86.776.547 1.216.905 1.48 1.349.398.667.243 1.272.142 1.676l-.054.223c-.183.804-.44 1.59-.767 2.346-.587 1.334-1.232 2.4-2.468 3.266a5.136 5.136 0 0 1-2.132.88Z" fill="#171717"/></symbol></svg>