<svg width="328" height="310" fill="none" xmlns="http://www.w3.org/2000/svg"><g filter="url(#a)"><rect x="57.453" y="13" width="250" height="229" rx="15" transform="rotate(8.653 57.453 13)" fill="#fff"/></g><g filter="url(#b)"><rect x="269.488" y="55.385" width="24" height="24" rx="12" transform="rotate(8.653 269.488 55.385)" fill="#24222F"/><path d="M275.129 71.765a.688.688 0 0 0-.138.94c.222.295.66.357.938.152l3.424-2.52 2.515 3.42c.213.288.645.354.94.137a.682.682 0 0 0 .148-.938l-2.516-3.419 3.42-2.52a.678.678 0 0 0 .138-.94.682.682 0 0 0-.938-.148l-3.419 2.516-2.52-3.42a.683.683 0 0 0-.94-.137.687.687 0 0 0-.148.938l2.515 3.423-3.419 2.516Z" fill="#fff"/></g><rect x="59.816" y="63.935" width="230" height="36" rx="5" transform="rotate(8.653 59.816 63.935)" fill="#F6F6F6"/><g clip-path="url(#c)" fill="#29B6FF"><path d="M74.064 83.3a4.2 4.2 0 1 0 1.264-8.304 4.2 4.2 0 0 0-1.264 8.304ZM73.857 84.684a6.307 6.307 0 0 0-7.176 5.28.7.7 0 0 0 .587.797l11.072 1.686a.7.7 0 0 0 .798-.587 6.307 6.307 0 0 0-5.28-7.176Z"/></g><path d="m96.908 92.093-.262 1.724-8.305-1.264 1.685-11.073 8.083 1.23-.262 1.725-6.027-.918-.438 2.88 5.347.813-.258 1.693-5.346-.814-.465 3.053 6.248.95Zm3.626-9.693 1.978.3-1.787 11.738-1.977-.301 1.786-11.737ZM107.1 95.52c-.854-.13-1.596-.432-2.225-.905a4.161 4.161 0 0 1-1.38-1.78c-.279-.722-.354-1.5-.228-2.333.127-.833.43-1.547.909-2.143a4.16 4.16 0 0 1 1.847-1.29c.742-.264 1.54-.331 2.394-.201.865.131 1.612.434 2.241.907a4.045 4.045 0 0 1 1.364 1.778c.291.713.373 1.486.246 2.32-.127.832-.436 1.551-.927 2.156a4.05 4.05 0 0 1-1.831 1.291c-.742.265-1.545.332-2.41.2Zm.258-1.692c.727.11 1.365-.04 1.914-.454.548-.412.882-1.014 1.003-1.805.12-.791-.02-1.465-.421-2.023-.401-.557-.965-.89-1.692-1.002-.728-.11-1.366.04-1.914.454-.538.414-.867 1.017-.988 1.808-.12.79.015 1.464.405 2.02.401.557.965.89 1.693 1.002Zm12.25-5.257c1.066.162 1.872.603 2.421 1.323.548.72.73 1.692.544 2.915l-.737 4.84-1.977-.3.698-4.588c.112-.738.022-1.318-.269-1.74-.291-.433-.757-.698-1.401-.796-.727-.11-1.336.023-1.825.402-.488.368-.794.964-.919 1.786l-.65 4.271-1.977-.3 1.285-8.448 1.883.287-.167 1.091c.387-.34.843-.573 1.369-.698s1.1-.14 1.722-.045Zm19.468 11.702 1.102-7.342-4.563 5.52-.917-.139-2.729-6.533-1.102 7.245-1.961-.299 1.685-11.072 1.692.257 3.28 8.01 5.436-6.683 1.692.257-1.669 11.075-1.946-.296Zm14.21-6.48-1.285 8.447-1.883-.286.164-1.076a3.24 3.24 0 0 1-1.321.705 3.941 3.941 0 0 1-1.58.067c-1.128-.171-1.972-.618-2.531-1.34-.547-.73-.727-1.713-.539-2.946l.734-4.825 1.977.301-.693 4.556c-.115.759-.033 1.354.246 1.785.292.422.754.681 1.387.778.707.107 1.298-.024 1.776-.394.489-.379.796-.98.921-1.802l.65-4.27 1.977.3Zm3.897 9.349a7.617 7.617 0 0 1-1.968-.575c-.627-.278-1.114-.585-1.463-.918l.988-1.387c.341.311.764.585 1.267.824a6.053 6.053 0 0 0 1.548.462c1.181.18 1.819-.042 1.913-.664.045-.295-.076-.524-.364-.686-.278-.161-.741-.345-1.389-.552-.68-.211-1.231-.419-1.653-.624a2.737 2.737 0 0 1-1.031-.885c-.263-.396-.348-.9-.255-1.511.122-.802.551-1.39 1.288-1.763.748-.382 1.692-.487 2.831-.313.58.088 1.15.245 1.709.47.56.215 1.008.461 1.344.739l-.988 1.387c-.653-.53-1.428-.865-2.324-1.001-.58-.088-1.037-.066-1.37.067-.321.124-.503.328-.546.613-.048.316.076.567.371.752.308.176.79.374 1.447.592.659.209 1.194.414 1.606.617.411.203.745.491 1.001.864.267.376.354.864.263 1.465-.12.791-.56 1.371-1.317 1.741-.758.371-1.727.466-2.908.286Zm9.547-2.366-1.683 1.168-.339 2.23-1.978-.301 1.786-11.737 1.978.301-1.079 7.087 4.675-3.173 2.373.36-4.067 3.007 3.113 5.491-2.404-.366-2.375-4.067Z" fill="#24222F"/><rect x="45.371" y="158.843" width="230" height="34" rx="5" transform="rotate(8.653 45.371 158.843)" fill="#F6F6F6"/><g clip-path="url(#d)"><path d="m60.915 186.598-5.025-.765a.475.475 0 0 1-.398-.541l.693-4.556-4.556-.694a.474.474 0 0 1-.398-.54l.765-5.026a.475.475 0 0 1 .54-.398l4.557.694.693-4.557a.475.475 0 0 1 .541-.398l5.026.765c.259.04.437.282.398.541l-.694 4.556 4.557.694c.259.039.437.281.397.54l-.764 5.026a.475.475 0 0 1-.541.398l-4.557-.694-.693 4.557a.475.475 0 0 1-.54.398Z" fill="#29B6FF"/></g><path d="m84.908 176.492-1.58 10.381-1.928-.294.677-4.449-5.368-.817-.677 4.449-1.928-.293 1.58-10.381 1.928.294-.653 4.285 5.368.817.653-4.285 1.928.293Zm9.643 3.986-5.01 7.993c-.476.807-.988 1.346-1.535 1.617-.549.281-1.174.368-1.876.261a3.726 3.726 0 0 1-1.142-.371 2.63 2.63 0 0 1-.868-.679l.95-1.251c.152.195.339.36.561.495.232.137.472.224.72.261.325.05.605.006.838-.13.243-.135.484-.387.722-.755l.18-.291-2.245-8.474 1.928.293 1.6 6.237 3.398-5.476 1.78.27Zm5.562.756c.771.117 1.432.39 1.984.818.562.429.969.977 1.222 1.642.253.666.318 1.399.196 2.2-.122.8-.403 1.486-.844 2.056-.439.56-.991.962-1.655 1.205-.654.244-1.367.308-2.138.19-1.067-.162-1.859-.647-2.373-1.453l-.585 3.84-1.853-.282 1.643-10.795 1.764.268-.158 1.038a2.91 2.91 0 0 1 1.256-.673 3.92 3.92 0 0 1 1.541-.054Zm-1.201 6.493c.682.104 1.275-.039 1.78-.427.514-.387.827-.951.94-1.693.113-.741-.019-1.373-.394-1.896-.366-.521-.89-.833-1.572-.937a2.358 2.358 0 0 0-1.249.129 2.166 2.166 0 0 0-.976.731c-.265.344-.435.763-.51 1.258-.075.494-.037.945.113 1.352.15.407.388.742.712 1.004a2.47 2.47 0 0 0 1.156.479Zm13.799-.388c-.02.128-.058.31-.113.544l-6.214-.946c.02.6.231 1.108.633 1.523.414.407.962.662 1.644.766.87.132 1.63-.045 2.281-.533l.82 1.293c-.421.371-.92.624-1.497.759-.576.134-1.206.15-1.888.046-.87-.132-1.61-.422-2.22-.869a3.854 3.854 0 0 1-1.323-1.673c-.261-.677-.332-1.406-.213-2.187.117-.771.395-1.437.835-1.997a3.809 3.809 0 0 1 1.689-1.23c.675-.251 1.404-.317 2.185-.199.771.118 1.432.395 1.982.833.562.43.963.981 1.205 1.655.252.666.317 1.404.194 2.215Zm-3.607-3.22c-.593-.09-1.124.011-1.594.304-.458.284-.776.711-.953 1.281l4.493.684c.008-.585-.163-1.087-.515-1.505-.351-.417-.828-.672-1.431-.764Zm7.585.912c.661-.749 1.663-1.021 3.007-.817l-.268 1.765a2.327 2.327 0 0 0-.423-.11c-.722-.11-1.318.017-1.788.38-.469.354-.763.926-.883 1.717l-.585 3.841-1.853-.282 1.205-7.919 1.764.268-.176 1.157Zm9.317-2.284c.9.137 1.658.404 2.276.801.627.399 1.076.902 1.348 1.51.271.608.349 1.293.234 2.054-.115.751-.393 1.382-.834 1.891-.441.499-1.019.846-1.737 1.04-.707.196-1.511.226-2.411.089l-2.343-.357-.455 2.996-1.928-.294 1.58-10.38 4.27.65Zm-.964 5.74c.84.128 1.505.047 1.994-.243.489-.289.784-.765.885-1.428.101-.662-.039-1.204-.42-1.627-.381-.422-.992-.697-1.832-.825l-2.254-.343-.627 4.123 2.254.343Zm11.408-1.723c.998.152 1.755.565 2.269 1.24.514.675.684 1.586.509 2.733l-.69 4.538-1.854-.282.655-4.301c.105-.692.021-1.236-.253-1.631-.272-.406-.709-.655-1.312-.746-.683-.104-1.253.021-1.712.377-.457.345-.744.903-.861 1.674l-.61 4.004-1.853-.282 1.674-11.004 1.854.283-.609 4.003a3 3 0 0 1 1.239-.57c.482-.108 1-.12 1.554-.036Zm8.683 1.321c1.167.178 2.014.595 2.541 1.252.538.648.722 1.536.55 2.663l-.706 4.641-1.75-.266.147-.964c-.28.312-.647.529-1.101.652-.442.115-.96.127-1.553.037s-1.097-.268-1.512-.534c-.413-.275-.716-.609-.909-1.003a2.237 2.237 0 0 1-.169-1.285c.108-.712.457-1.24 1.046-1.586.6-.353 1.468-.444 2.605-.271l2.047.312.018-.119c.084-.554-.02-1.004-.311-1.352-.281-.346-.747-.569-1.4-.668a4.373 4.373 0 0 0-1.351.006 3.28 3.28 0 0 0-1.171.414l-.521-1.46a4.564 4.564 0 0 1 1.608-.499 6.763 6.763 0 0 1 1.892.03Zm-1.281 6.724c.465.071.891.029 1.278-.124.399-.162.703-.429.911-.802l.14-.92-1.913-.291c-1.067-.162-1.655.108-1.762.81a.955.955 0 0 0 .279.861c.237.239.592.394 1.067.466Zm8.839-4.299c.66-.749 1.662-1.022 3.007-.817l-.269 1.765a2.286 2.286 0 0 0-.423-.11c-.722-.11-1.317.017-1.788.38-.468.354-.762.926-.883 1.717l-.584 3.841-1.854-.282 1.205-7.919 1.765.268-.176 1.157Zm14.574.944c.999.151 1.745.563 2.24 1.236.496.662.656 1.571.48 2.728l-.691 4.538-1.853-.283.654-4.3c.105-.692.031-1.234-.223-1.627-.252-.403-.665-.648-1.238-.735-.623-.095-1.154.037-1.593.395-.437.348-.714.903-.83 1.664l-.611 4.019-1.854-.282.655-4.301c.105-.692.031-1.234-.223-1.627-.252-.402-.665-.647-1.239-.734-.632-.097-1.167.029-1.605.377-.427.35-.7.91-.817 1.682l-.612 4.018-1.853-.282 1.205-7.919 1.765.269-.154 1.008c.351-.31.763-.526 1.236-.646.474-.12.982-.139 1.526-.056.593.09 1.1.284 1.52.58.432.288.748.67.949 1.146a3.262 3.262 0 0 1 1.407-.772 4.061 4.061 0 0 1 1.759-.096Z" fill="#24222F"/><rect x="39.504" y="197.398" width="230" height="34" rx="5" transform="rotate(8.653 39.504 197.398)" fill="#F6F6F6"/><g clip-path="url(#e)"><path d="M54.996 208.607a8.246 8.246 0 0 0-8.302 3.888 8.25 8.25 0 1 0 15.217 5.509 8.26 8.26 0 0 0-6.915-9.397Zm1.089 11.323a.749.749 0 0 1-1.048-.16l-1.886-2.562a.752.752 0 0 1-.138-.558l.677-4.449a.751.751 0 0 1 1.483.226l-.63 4.142 1.702 2.313a.748.748 0 0 1-.16 1.048Z" fill="#29B6FF"/></g><path d="m72.664 214.077-1.58 10.381-1.928-.294 1.334-8.764-2.195-.334.246-1.616 4.123.627Zm5.648.86-1.58 10.38-1.928-.293 1.334-8.764-2.195-.334.246-1.617 4.123.628Zm2.48 5.324a1.217 1.217 0 0 1-.808-.472 1.221 1.221 0 0 1-.22-.944c.055-.366.214-.645.476-.838a1.23 1.23 0 0 1 .926-.208c.346.053.616.21.809.472.202.263.276.578.22.944a1.22 1.22 0 0 1-.491.835 1.21 1.21 0 0 1-.912.211Zm-.86 5.65a1.217 1.217 0 0 1-.808-.472 1.222 1.222 0 0 1-.22-.944c.055-.366.214-.645.476-.838a1.23 1.23 0 0 1 .927-.208c.346.053.615.21.808.472.202.263.276.578.22.944a1.22 1.22 0 0 1-.491.835 1.21 1.21 0 0 1-.912.211Zm10.246-.216-.248 1.631-7.652-1.165.196-1.29 4.719-3.287c.532-.374.902-.713 1.11-1.015.22-.31.354-.629.403-.955.074-.484-.033-.88-.32-1.187-.287-.306-.747-.508-1.38-.604-1.057-.161-1.923.076-2.596.712l-1.192-1.243c.488-.482 1.096-.82 1.823-1.012.739-.202 1.533-.237 2.384-.108 1.127.171 1.986.575 2.577 1.211.59.637.816 1.414.676 2.334a3.66 3.66 0 0 1-.597 1.532c-.313.459-.853.953-1.622 1.483l-3.175 2.218 4.894.745Zm6.512-3.895c.682.104 1.275.331 1.778.68.504.34.873.775 1.106 1.307.233.531.3 1.113.204 1.745-.102.672-.36 1.24-.775 1.703a3.4 3.4 0 0 1-1.542.964c-.616.189-1.28.23-1.991.122-1.424-.217-2.463-.83-3.119-1.84-.645-1.009-.842-2.344-.59-4.005.178-1.166.542-2.127 1.092-2.883.552-.766 1.24-1.304 2.066-1.613.838-.317 1.76-.4 2.769-.246a6.067 6.067 0 0 1 1.47.406c.459.181.844.406 1.157.676l-.933 1.345c-.463-.414-1.095-.682-1.896-.804-.998-.152-1.826.036-2.483.563-.656.527-1.073 1.369-1.249 2.526l-.002.015c.36-.31.792-.517 1.293-.623.504-.116 1.052-.128 1.645-.038Zm-1.094 4.992c.603.092 1.117.008 1.54-.251.426-.269.68-.67.76-1.204.083-.544-.04-1.003-.367-1.376-.327-.374-.807-.609-1.44-.705-.623-.095-1.158-.004-1.604.272a1.636 1.636 0 0 0-.773 1.187c-.077.504.047.953.372 1.346.336.385.84.629 1.512.731Zm13.606-4.726c1.167.177 2.013.594 2.541 1.251.538.649.722 1.536.55 2.663l-.706 4.642-1.75-.267.147-.963c-.28.311-.647.528-1.101.651-.442.115-.96.127-1.553.037s-1.097-.268-1.512-.533c-.413-.276-.716-.61-.909-1.004a2.237 2.237 0 0 1-.169-1.285c.108-.711.457-1.24 1.045-1.585.601-.354 1.469-.444 2.606-.271l2.046.311.018-.119c.085-.553-.019-1.004-.31-1.352-.281-.346-.748-.569-1.4-.668a4.374 4.374 0 0 0-1.351.007 3.253 3.253 0 0 0-1.171.413l-.521-1.46a4.543 4.543 0 0 1 1.608-.498c.609-.08 1.24-.07 1.892.03Zm-1.281 6.723c.464.071.891.03 1.278-.124.399-.162.703-.429.911-.802l.14-.919-1.913-.291c-1.068-.163-1.655.107-1.762.809a.957.957 0 0 0 .279.862c.237.238.592.393 1.067.465Zm17.258-4.292c.999.152 1.745.564 2.24 1.236.496.662.656 1.572.48 2.728l-.691 4.538-1.853-.282.654-4.3c.105-.692.031-1.235-.223-1.627-.252-.403-.665-.648-1.238-.735-.623-.095-1.154.037-1.593.395-.437.348-.714.903-.83 1.664l-.611 4.019-1.854-.283.655-4.3c.105-.692.031-1.234-.223-1.627-.252-.403-.665-.647-1.239-.735-.632-.096-1.167.03-1.605.378-.427.35-.7.91-.817 1.681l-.612 4.019-1.853-.282 1.205-7.919 1.765.269-.154 1.008a2.914 2.914 0 0 1 1.236-.646 3.801 3.801 0 0 1 1.526-.056c.593.09 1.1.283 1.52.58.432.288.748.67.949 1.146a3.262 3.262 0 0 1 1.407-.772 4.047 4.047 0 0 1 1.759-.097Zm8.841 4.532 4.078.62-.235 1.543-4.078-.621.235-1.542Zm13.204 7.168c-.831-.126-1.541-.447-2.13-.961-.588-.525-1.009-1.216-1.262-2.074-.253-.868-.295-1.855-.126-2.963.168-1.107.501-2.032.999-2.776.499-.753 1.106-1.288 1.822-1.604.717-.326 1.491-.425 2.321-.299.831.126 1.54.452 2.128.976.599.516 1.025 1.208 1.277 2.076.254.858.296 1.84.128 2.948-.169 1.107-.502 2.037-1.001 2.791-.498.743-1.11 1.277-1.837 1.602-.716.316-1.489.41-2.319.284Zm.255-1.676c.741.113 1.371-.105 1.889-.653.529-.547.885-1.428 1.07-2.644.185-1.216.107-2.164-.235-2.843-.331-.677-.868-1.073-1.61-1.185-.731-.112-1.361.106-1.889.653-.519.548-.87 1.43-1.055 2.646-.186 1.216-.112 2.163.22 2.841.341.679.878 1.074 1.61 1.185Zm13.109 1.889-.248 1.631-7.652-1.164.196-1.29 4.719-3.288c.532-.374.902-.712 1.11-1.014.219-.311.354-.629.403-.955.074-.485-.033-.88-.32-1.187-.287-.307-.747-.508-1.38-.605-1.057-.161-1.923.077-2.596.713l-1.192-1.244c.488-.482 1.096-.819 1.823-1.012.739-.201 1.533-.237 2.384-.108 1.127.172 1.986.576 2.577 1.212s.816 1.414.676 2.333a3.669 3.669 0 0 1-.597 1.533c-.313.458-.853.952-1.622 1.483l-3.175 2.217 4.894.745Zm2.865-3.569a1.218 1.218 0 0 1-.808-.472 1.219 1.219 0 0 1-.22-.944c.055-.366.214-.645.476-.838a1.23 1.23 0 0 1 .927-.208c.346.053.615.21.808.472.203.263.276.578.221.944a1.22 1.22 0 0 1-.492.835 1.21 1.21 0 0 1-.912.211Zm-.86 5.65a1.218 1.218 0 0 1-.808-.472 1.223 1.223 0 0 1-.22-.944c.055-.366.214-.645.476-.838a1.23 1.23 0 0 1 .927-.208c.346.053.615.21.808.472.203.263.276.578.221.944a1.217 1.217 0 0 1-.492.835 1.208 1.208 0 0 1-.912.211Zm10.247-.216-.249 1.631-7.651-1.165.196-1.29 4.718-3.287c.533-.374.903-.713 1.11-1.015.22-.31.354-.629.404-.955.073-.484-.033-.88-.32-1.187-.287-.306-.747-.508-1.38-.604-1.058-.161-1.923.076-2.597.712l-1.191-1.243c.488-.482 1.095-.82 1.823-1.012.738-.201 1.533-.237 2.383-.108 1.127.172 1.986.575 2.577 1.212.591.636.817 1.413.677 2.333a3.658 3.658 0 0 1-.598 1.532c-.312.459-.853.953-1.621 1.483l-3.175 2.218 4.894.745Zm6.511-3.895c.682.104 1.275.331 1.778.68.505.34.873.776 1.106 1.307.233.531.301 1.113.205 1.745-.102.673-.361 1.24-.775 1.703a3.399 3.399 0 0 1-1.543.964c-.615.189-1.279.23-1.991.122-1.423-.217-2.463-.83-3.118-1.84-.646-1.009-.842-2.344-.59-4.005.178-1.166.542-2.127 1.092-2.883.551-.766 1.24-1.304 2.066-1.613.837-.317 1.76-.399 2.768-.246a6.12 6.12 0 0 1 1.471.406 3.97 3.97 0 0 1 1.156.677l-.933 1.344c-.462-.414-1.094-.682-1.895-.804-.999-.152-1.826.036-2.483.563-.657.527-1.073 1.369-1.249 2.526l-.003.015c.361-.31.792-.517 1.294-.623.503-.116 1.051-.128 1.644-.038Zm-1.093 4.992c.603.092 1.116.008 1.54-.251.425-.269.679-.67.76-1.204.083-.544-.04-1.002-.367-1.376-.328-.374-.808-.608-1.441-.705-.622-.095-1.157-.004-1.604.272a1.634 1.634 0 0 0-.772 1.187c-.077.504.047.953.371 1.347.336.384.84.628 1.513.73Zm14.97-4.519c.771.118 1.432.39 1.984.818.562.43.969.977 1.222 1.643.253.665.318 1.398.196 2.199-.121.801-.403 1.487-.844 2.057-.439.56-.991.962-1.655 1.204-.654.245-1.367.308-2.138.191-1.067-.163-1.858-.647-2.373-1.454l-.584 3.841-1.854-.282 1.643-10.796 1.765.269-.158 1.038a2.908 2.908 0 0 1 1.255-.674 3.94 3.94 0 0 1 1.541-.054Zm-1.201 6.494c.682.103 1.276-.039 1.78-.428.514-.387.827-.951.94-1.692.113-.742-.018-1.374-.394-1.896-.366-.521-.89-.834-1.572-.937a2.37 2.37 0 0 0-1.249.128 2.176 2.176 0 0 0-.976.732c-.265.344-.435.763-.51 1.257-.075.495-.037.945.113 1.353.151.407.388.741.712 1.003.326.252.711.412 1.156.48Zm16.972-4.093c.999.151 1.745.563 2.24 1.236.496.662.656 1.571.48 2.728l-.691 4.538-1.853-.283.654-4.3c.106-.692.031-1.234-.223-1.627-.252-.403-.665-.648-1.238-.735-.623-.095-1.154.037-1.593.395-.437.348-.714.903-.829 1.664l-.612 4.019-1.854-.282.655-4.301c.105-.692.031-1.234-.223-1.627-.252-.402-.665-.647-1.239-.734-.632-.097-1.167.029-1.605.377-.427.35-.7.91-.817 1.682l-.612 4.018-1.853-.282 1.205-7.919 1.765.269-.154 1.008c.351-.31.763-.526 1.237-.646.473-.12.982-.139 1.525-.056.593.09 1.1.284 1.52.58.432.288.748.67.949 1.146a3.262 3.262 0 0 1 1.407-.772 4.062 4.062 0 0 1 1.759-.096Z" fill="#24222F"/><g clip-path="url(#f)"><rect x="53.949" y="102.491" width="230" height="52" rx="5" transform="rotate(8.653 53.95 102.491)" fill="#F6F6F6"/><g clip-path="url(#g)"><path d="m76.899 122.5-6.925-8.337a.898.898 0 0 0-1.183-.18l-9.09 5.899a.914.914 0 0 0-.39.568.902.902 0 0 0 1.37.942l.339-.222-1.023 6.72a.9.9 0 0 0 .755 1.025l3.559.542a.897.897 0 0 0 1.025-.754l.406-2.67a.898.898 0 0 1 1.025-.754l1.78.271a.9.9 0 0 1 .754 1.025l-.406 2.669a.9.9 0 0 0 .754 1.025l3.559.542a.897.897 0 0 0 1.025-.754l1.022-6.719.258.313a.895.895 0 0 0 .958.285.909.909 0 0 0 .53-.44.898.898 0 0 0-.103-.995v-.001Z" fill="#29B6FF"/></g><path d="m87.11 119.17-1.58 10.381-1.928-.294 1.333-8.764-2.194-.334.246-1.616 4.122.627Zm8.245 10.207-.248 1.631-7.652-1.164.196-1.291 4.719-3.287c.532-.374.902-.712 1.11-1.015.22-.31.354-.629.403-.955.074-.484-.033-.88-.32-1.186-.287-.307-.747-.509-1.38-.605-1.057-.161-1.923.077-2.596.713l-1.192-1.244c.488-.482 1.096-.819 1.823-1.012.739-.201 1.533-.237 2.384-.108 1.127.172 1.986.576 2.577 1.212.59.636.816 1.414.676 2.333a3.665 3.665 0 0 1-.597 1.533c-.313.458-.853.952-1.622 1.483l-3.174 2.217 4.893.745Zm6.211-3.622c.941.265 1.623.702 2.046 1.313.423.611.574 1.316.452 2.117a3.098 3.098 0 0 1-.711 1.576c-.381.448-.906.772-1.574.974-.657.194-1.43.223-2.32.087a7.53 7.53 0 0 1-2.102-.638c-.65-.322-1.188-.707-1.615-1.156l1.058-1.372c.328.374.745.695 1.25.964a5.4 5.4 0 0 0 1.635.522c.682.104 1.237.047 1.665-.171.439-.227.695-.582.769-1.067.074-.484-.057-.889-.392-1.213-.324-.332-.866-.556-1.628-.672l-.949-.145.201-1.319 2.785-2.444-4.716-.718.246-1.616 7.073 1.076-.196 1.29-2.977 2.612Zm17.66 8.924 1.032-6.883-4.277 5.175-.86-.131-2.558-6.124-1.034 6.791-1.839-.279 1.58-10.381 1.587.242 3.075 7.508 5.096-6.265 1.587.242-1.565 10.382-1.824-.277Zm8.693-6.87c1.167.177 2.014.594 2.541 1.251.539.648.722 1.536.551 2.663l-.707 4.642-1.75-.267.147-.963c-.28.311-.647.528-1.1.651-.443.115-.961.127-1.554.037-.593-.09-1.097-.268-1.512-.533-.413-.276-.716-.61-.909-1.004a2.237 2.237 0 0 1-.169-1.285c.109-.712.457-1.24 1.046-1.585.6-.354 1.468-.445 2.605-.272l2.047.312.018-.119c.084-.553-.019-1.004-.31-1.352-.281-.346-.748-.569-1.401-.668a4.343 4.343 0 0 0-1.351.007 3.266 3.266 0 0 0-1.171.413l-.521-1.46a4.55 4.55 0 0 1 1.608-.498c.609-.08 1.24-.07 1.892.03Zm-1.281 6.723c.465.071.891.03 1.278-.124.399-.162.703-.429.912-.802l.139-.919-1.913-.291c-1.067-.163-1.655.107-1.761.809a.954.954 0 0 0 .278.861c.237.239.593.394 1.067.466Zm7.25-5.724 1.854.282-1.205 7.919-1.854-.282 1.205-7.919Zm1.133-1.163a1.222 1.222 0 0 1-.798-.44 1.079 1.079 0 0 1-.219-.853 1.03 1.03 0 0 1 .461-.734c.26-.183.559-.248.895-.197.336.051.602.198.798.44a.972.972 0 0 1 .226.808c-.05.326-.206.586-.468.779-.25.184-.549.25-.895.197Zm7.661 2.41c.998.152 1.755.566 2.269 1.241.514.675.684 1.586.51 2.732l-.691 4.538-1.854-.282.655-4.3c.105-.692.021-1.236-.253-1.632-.272-.405-.709-.654-1.312-.746-.682-.104-1.253.022-1.711.377-.458.345-.745.903-.862 1.674l-.61 4.004-1.853-.282 1.205-7.919 1.765.269-.156 1.023c.362-.319.79-.537 1.283-.654a4.208 4.208 0 0 1 1.615-.043Zm11.911 10.158a8.111 8.111 0 0 1-2.276-.695c-.707-.341-1.249-.732-1.627-1.174l.895-1.396c.374.401.851.757 1.431 1.068a5.93 5.93 0 0 0 1.821.595c.771.118 1.363.081 1.776-.109.424-.188.666-.485.728-.89a.928.928 0 0 0-.216-.777 2.122 2.122 0 0 0-.731-.581c-.309-.159-.735-.35-1.278-.574-.762-.308-1.376-.594-1.842-.857a3.285 3.285 0 0 1-1.127-1.067c-.285-.458-.375-1.028-.271-1.71a2.792 2.792 0 0 1 .697-1.487c.388-.426.915-.731 1.58-.913.675-.18 1.467-.201 2.376-.063.633.097 1.244.27 1.833.522a5.201 5.201 0 0 1 1.483.924l-.836 1.405a6.09 6.09 0 0 0-1.331-.825 5.35 5.35 0 0 0-1.407-.426c-.761-.116-1.349-.074-1.764.126-.405.201-.64.514-.705.939a.946.946 0 0 0 .201.774c.189.221.438.411.748.569.31.159.736.35 1.278.574.744.295 1.349.58 1.813.853.465.263.841.618 1.127 1.066.296.45.393 1.011.29 1.683a2.734 2.734 0 0 1-.711 1.485c-.377.418-.903.717-1.578.898-.675.18-1.467.201-2.377.063Zm10.779 1.049a2.223 2.223 0 0 1-.862.278c-.32.042-.653.037-.999-.015-.87-.133-1.508-.463-1.913-.99-.405-.526-.542-1.225-.409-2.095l.58-3.811-1.305-.199.225-1.483 1.305.199.276-1.809 1.853.282-.275 1.809 2.12.323-.225 1.483-2.121-.323-.573 3.767c-.059.385-.01.696.146.932.158.227.415.367.771.421.415.063.778.007 1.087-.168l.319 1.399Zm4.253-5.832c.66-.749 1.662-1.021 3.007-.817l-.269 1.765a2.368 2.368 0 0 0-.423-.11c-.722-.11-1.317.017-1.787.38-.469.354-.763.926-.884 1.717l-.584 3.841-1.854-.282 1.205-7.919 1.765.268-.176 1.157Zm11.328 4.637c-.019.129-.057.31-.113.544l-6.213-.945c.02.6.231 1.107.633 1.522.413.407.961.663 1.643.766.87.133 1.631-.045 2.282-.532l.819 1.293c-.42.371-.919.623-1.496.758s-1.206.15-1.888.047c-.87-.133-1.61-.422-2.22-.869a3.845 3.845 0 0 1-1.323-1.673c-.261-.677-.332-1.406-.214-2.187.118-.772.396-1.437.835-1.998a3.817 3.817 0 0 1 1.69-1.229c.675-.252 1.403-.318 2.184-.199.772.117 1.432.395 1.983.833a3.54 3.54 0 0 1 1.204 1.655c.253.666.318 1.404.194 2.214Zm-3.606-3.219c-.593-.09-1.125.011-1.594.304-.458.284-.776.711-.954 1.281l4.494.684c.008-.586-.164-1.087-.515-1.505-.351-.418-.828-.672-1.431-.764Zm12.831 4.623c-.019.129-.057.31-.113.544l-6.213-.945c.02.6.231 1.107.633 1.522.413.407.961.663 1.643.766.87.133 1.631-.045 2.281-.533l.82 1.294c-.42.37-.919.623-1.496.758s-1.206.15-1.888.046c-.87-.132-1.61-.422-2.22-.868a3.842 3.842 0 0 1-1.323-1.674c-.261-.676-.333-1.405-.214-2.187.118-.771.396-1.436.835-1.997a3.817 3.817 0 0 1 1.69-1.229c.675-.252 1.403-.318 2.184-.199.771.117 1.432.395 1.983.833a3.54 3.54 0 0 1 1.204 1.655c.253.665.318 1.404.194 2.214Zm-3.606-3.219c-.594-.09-1.125.011-1.594.304-.458.284-.776.711-.954 1.281l4.493.684c.009-.586-.163-1.087-.514-1.505-.351-.418-.828-.672-1.431-.764Zm9.617 7.7a2.223 2.223 0 0 1-.862.278c-.32.042-.653.037-.999-.015-.87-.133-1.508-.463-1.913-.99-.405-.527-.542-1.225-.409-2.095l.58-3.811-1.305-.199.225-1.483 1.305.199.276-1.809 1.853.282-.275 1.809 2.12.323-.225 1.483-2.121-.323-.573 3.767c-.059.385-.01.696.146.932.158.227.415.367.771.421.415.063.778.007 1.088-.168l.318 1.399Zm2.571-1.582c.346.053.615.21.808.472.193.262.261.576.206.942a1.936 1.936 0 0 1-.151.493 6.2 6.2 0 0 1-.385.73l-1.074 1.976-1.201-.183.938-2.178a1.149 1.149 0 0 1-.456-.494 1.324 1.324 0 0 1-.074-.71c.056-.365.215-.645.477-.837.262-.193.566-.263.912-.211Zm17.733-5.509-1.58 10.38-1.586-.241-4.655-7.9-1.069 7.029-1.913-.292 1.579-10.38 1.587.241 4.654 7.901 1.07-7.029 1.913.291Zm9.064 7.994c-.02.129-.057.31-.113.545l-6.214-.946c.02.6.231 1.107.634 1.523.413.406.961.662 1.643.766.87.132 1.63-.046 2.281-.533l.82 1.293a3.378 3.378 0 0 1-1.496.758c-.577.135-1.207.15-1.889.047-.87-.133-1.61-.422-2.219-.869a3.855 3.855 0 0 1-1.324-1.673c-.261-.677-.332-1.406-.213-2.187.117-.771.396-1.437.835-1.997a3.815 3.815 0 0 1 1.689-1.23c.676-.251 1.404-.318 2.185-.199.771.118 1.432.395 1.982.833.562.429.964.981 1.205 1.655.253.666.317 1.404.194 2.214Zm-3.607-3.219c-.593-.09-1.124.011-1.593.304-.458.284-.776.711-.954 1.281l4.493.684c.008-.586-.163-1.087-.514-1.505-.351-.417-.829-.672-1.432-.764Zm18.205 1.344-4.127 7.475-1.779-.271-1.216-5.769-2.907 5.141-1.779-.27-1.702-8.362 1.75.267 1.202 6.161 3.069-5.511 1.557.237 1.242 6.197 3.044-5.545 1.646.25ZM85.01 143.931l-.558 3.663-1.927-.293.552-3.634-3.05-7.368 2.06.314 2.271 5.52 3.84-4.59 1.897.289-5.085 6.099Zm7.25 4.957c-.8-.122-1.496-.404-2.086-.848-.59-.444-1.021-1-1.294-1.669-.261-.677-.332-1.406-.213-2.187.119-.781.403-1.451.852-2.01a3.897 3.897 0 0 1 1.731-1.208c.696-.248 1.444-.311 2.244-.189.811.123 1.511.407 2.101.85.59.444 1.017 1 1.28 1.667.272.668.349 1.393.23 2.174-.12.781-.409 1.455-.87 2.023a3.795 3.795 0 0 1-1.716 1.21c-.696.248-1.448.311-2.26.187Zm.241-1.586c.682.103 1.28-.038 1.795-.425.514-.387.827-.952.94-1.693.113-.742-.018-1.373-.394-1.896-.376-.522-.905-.836-1.587-.939-.682-.104-1.28.037-1.794.424-.504.389-.813.954-.926 1.696-.113.741.014 1.372.38 1.893.375.523.904.836 1.586.94Zm8.567-4.098c.661-.749 1.663-1.022 3.008-.817l-.269 1.765a2.327 2.327 0 0 0-.423-.11c-.722-.11-1.318.017-1.788.38-.468.354-.763.926-.883 1.717l-.585 3.841-1.853-.283 1.205-7.918 1.764.268-.176 1.157Zm7.111 4.526-1.578 1.095-.318 2.091-1.854-.282 1.675-11.003 1.854.282-1.012 6.643 4.383-2.974 2.224.338-3.812 2.819 2.919 5.148-2.254-.343-2.227-3.814Zm14.381-4.957-1.58 10.38-1.927-.293 1.333-8.764-2.194-.334.246-1.617 4.122.628Zm4.787 11.501c-.83-.127-1.54-.447-2.129-.962-.588-.524-1.009-1.215-1.263-2.073-.252-.868-.294-1.856-.126-2.963.169-1.107.502-2.033 1-2.776.499-.754 1.106-1.288 1.822-1.604.717-.326 1.491-.426 2.321-.299.83.126 1.54.451 2.127.976.6.516 1.025 1.208 1.278 2.076.253.858.296 1.84.128 2.947-.169 1.108-.503 2.038-1.002 2.792-.497.743-1.11 1.277-1.837 1.601-.715.316-1.488.411-2.319.285Zm.255-1.676c.742.113 1.372-.105 1.89-.653.528-.547.885-1.428 1.07-2.644.185-1.216.107-2.164-.235-2.843-.332-.678-.868-1.073-1.61-1.186-.732-.111-1.361.107-1.89.653-.518.549-.87 1.431-1.055 2.647-.185 1.216-.112 2.163.22 2.84.342.679.879 1.075 1.61 1.186Zm9.723 3.194c-.83-.126-1.54-.447-2.13-.961-.587-.525-1.008-1.216-1.262-2.074-.252-.868-.294-1.855-.126-2.962.169-1.108.502-2.033.999-2.777.499-.753 1.107-1.288 1.823-1.604.717-.326 1.491-.425 2.321-.299.83.127 1.539.452 2.127.976.599.516 1.025 1.208 1.278 2.076.253.858.296 1.841.127 2.948-.168 1.107-.502 2.038-1.001 2.791-.497.744-1.11 1.278-1.837 1.602-.715.316-1.489.411-2.319.284Zm.255-1.676c.742.113 1.371-.104 1.89-.653.528-.546.885-1.428 1.07-2.644.185-1.216.107-2.163-.235-2.842-.332-.678-.869-1.073-1.61-1.186-.732-.112-1.362.106-1.89.653-.518.548-.87 1.43-1.055 2.646-.185 1.216-.112 2.163.22 2.841.342.679.878 1.074 1.61 1.185Zm9.723 3.195c-.831-.127-1.54-.447-2.13-.962-.587-.524-1.008-1.215-1.262-2.073-.252-.868-.294-1.856-.126-2.963.169-1.107.502-2.033.999-2.776.499-.754 1.107-1.288 1.822-1.604.718-.326 1.491-.426 2.322-.299.83.126 1.539.451 2.127.976.599.516 1.025 1.208 1.277 2.076.254.858.297 1.84.128 2.947-.168 1.108-.502 2.038-1.001 2.792-.498.743-1.11 1.277-1.837 1.601-.716.316-1.489.411-2.319.285Zm.255-1.676c.741.113 1.371-.105 1.89-.653.528-.547.885-1.428 1.07-2.644.185-1.216.106-2.164-.235-2.843-.332-.678-.869-1.073-1.61-1.186-.732-.111-1.362.107-1.89.653-.518.549-.87 1.431-1.055 2.647-.185 1.216-.112 2.163.22 2.84.342.679.878 1.075 1.61 1.186Zm10.511-7.458-1.58 10.38-1.927-.293 1.333-8.764-2.194-.334.246-1.617 4.122.628Z" fill="#24222F"/></g><rect x="65.836" y="24.391" width="129" height="30" rx="15" transform="rotate(8.653 65.836 24.39)" fill="#29B6FF"/><rect x="74.82" y="31.827" width="21" height="18" rx="9" transform="rotate(8.653 74.82 31.827)" fill="#fff"/><path d="m78.646 46.57 1.252-8.225.763 1.036-2.7-.41.255-1.671 3.881.59-1.369 8.997-2.082-.317Zm6.68 1.174a7.358 7.358 0 0 1-1.826-.527c-.582-.264-1.068-.584-1.458-.959l1.065-1.468a4.532 4.532 0 0 0 2.434 1.199c.523.08.95.039 1.28-.121a.997.997 0 0 0 .582-.793 1.098 1.098 0 0 0-.087-.644c-.092-.198-.285-.368-.58-.509-.285-.14-.702-.252-1.25-.335l-2.3-.35 1.232-4.993 5.488.835-.254 1.67-4.742-.721 1.224-.787-.871 3.563-.935-1.116 1.902.29c.891.135 1.588.368 2.09.699.512.323.86.714 1.045 1.172.184.457.236.952.155 1.483a2.91 2.91 0 0 1-.623 1.417c-.334.405-.8.707-1.4.905-.59.19-1.314.22-2.17.09Z" fill="#29B6FF"/><path d="m101.438 39.722 4.841.737c1.181.18 2.195.571 3.042 1.175.848.593 1.461 1.35 1.839 2.27.379.91.486 1.914.319 3.01-.167 1.097-.568 2.029-1.203 2.795-.633.756-1.443 1.297-2.431 1.621-.987.314-2.07.38-3.251.201l-4.84-.736 1.684-11.073Zm3.326 10.055c.812.123 1.547.079 2.205-.134a3.385 3.385 0 0 0 1.626-1.112c.425-.529.696-1.173.811-1.932.116-.76.048-1.45-.202-2.07a3.258 3.258 0 0 0-1.222-1.545c-.563-.41-1.251-.676-2.063-.8l-2.689-.41-1.156 7.593 2.69.41Zm10.848-3.95c.704-.798 1.773-1.089 3.207-.87l-.286 1.882a2.535 2.535 0 0 0-.451-.117c-.77-.117-1.406.018-1.907.405-.5.377-.814.988-.942 1.831l-.624 4.097-1.977-.3 1.285-8.447 1.883.286-.188 1.234Zm4.87-.52 1.978.3-1.286 8.447-1.977-.3 1.285-8.447Zm1.209-1.24a1.299 1.299 0 0 1-.851-.47 1.144 1.144 0 0 1-.234-.91c.051-.337.215-.598.491-.782.278-.196.596-.266.955-.211.358.054.642.21.851.47.21.247.291.534.241.861a1.218 1.218 0 0 1-.499.83c-.267.197-.585.268-.954.212Zm11.273 3.14-4.908 7.895-2.041-.31-2.336-8.999 2.056.313 1.672 6.664 3.658-5.853 1.899.29Zm8.294 5.631c-.021.137-.061.331-.12.58l-6.628-1.008c.021.64.246 1.181.675 1.624.441.434 1.026.707 1.753.817.928.142 1.739-.048 2.433-.568l.875 1.38a3.615 3.615 0 0 1-1.596.808c-.615.144-1.287.16-2.014.05-.928-.141-1.718-.45-2.368-.927a4.1 4.1 0 0 1-1.411-1.785c-.279-.722-.355-1.5-.228-2.332.125-.823.422-1.533.891-2.13a4.065 4.065 0 0 1 1.801-1.313c.721-.267 1.498-.338 2.331-.211.822.125 1.527.42 2.114.888a3.77 3.77 0 0 1 1.285 1.765c.27.71.339 1.498.207 2.362Zm-3.847-3.434c-.633-.096-1.199.012-1.7.324-.488.304-.828.76-1.017 1.367l4.793.73c.008-.625-.174-1.16-.549-1.606-.375-.445-.884-.717-1.527-.815Zm8.091.973c.704-.8 1.774-1.09 3.208-.872l-.287 1.883a2.543 2.543 0 0 0-.451-.117c-.77-.117-1.406.018-1.907.405-.5.377-.814.988-.942 1.831l-.624 4.097-1.977-.3 1.286-8.447 1.882.286-.188 1.234Zm11.813 9.291c-.854-.13-1.596-.432-2.225-.905a4.161 4.161 0 0 1-1.38-1.78c-.278-.722-.354-1.5-.227-2.333.126-.833.429-1.547.908-2.143a4.16 4.16 0 0 1 1.847-1.29c.742-.264 1.54-.331 2.394-.201.865.131 1.612.434 2.241.907a4.045 4.045 0 0 1 1.364 1.778c.291.713.373 1.486.246 2.319s-.436 1.552-.927 2.157a4.046 4.046 0 0 1-1.831 1.291c-.742.265-1.545.332-2.41.2Zm.258-1.693c.727.111 1.365-.04 1.914-.453.548-.413.883-1.014 1.003-1.805.12-.791-.02-1.465-.421-2.023-.4-.557-.964-.891-1.692-1.002-.728-.11-1.366.04-1.914.453-.538.415-.867 1.018-.987 1.808-.121.791.014 1.465.404 2.02.401.558.965.892 1.693 1.002Zm15.621-4.646-1.285 8.447-1.883-.287.164-1.075a3.256 3.256 0 0 1-1.321.705 3.948 3.948 0 0 1-1.58.067c-1.128-.172-1.972-.619-2.531-1.34-.547-.73-.727-1.713-.539-2.947l.734-4.824 1.977.3-.693 4.556c-.115.76-.033 1.355.246 1.786.292.422.754.68 1.387.777.707.108 1.298-.024 1.775-.393.49-.379.797-.98.922-1.802l.65-4.271 1.977.3Zm6.451 9.155a2.348 2.348 0 0 1-.919.297 3.77 3.77 0 0 1-1.066-.017c-.928-.141-1.608-.493-2.04-1.055-.433-.562-.578-1.307-.437-2.235l.619-4.065-1.392-.212.24-1.582 1.392.212.294-1.93 1.977.301-.293 1.93 2.262.344-.241 1.582-2.262-.344-.612 4.017c-.062.412-.01.743.157.995.168.242.442.391.821.45.443.067.83.007 1.161-.18l.339 1.492Z" fill="#fff"/><defs><clipPath id="c"><path fill="#fff" transform="rotate(8.653 -449.49 476.156)" d="M0 0h18v18H0z"/></clipPath><clipPath id="d"><path fill="#fff" transform="rotate(8.653 -1083.927 428.145)" d="M0 0h18v18H0z"/></clipPath><clipPath id="e"><path fill="#fff" transform="rotate(8.653 -1341.658 408.648)" d="M0 0h18v18H0z"/></clipPath><clipPath id="f"><rect x="53.949" y="102.491" width="230" height="52" rx="5" transform="rotate(8.653 53.95 102.491)" fill="#fff"/></clipPath><clipPath id="g"><path fill="#fff" transform="rotate(8.653 -707.226 456.659)" d="M0 0h18v18H0z"/></clipPath><filter id="a" x=".082" y=".084" width="327.441" height="309.839" filterUnits="userSpaceOnUse" color-interpolation-filters="sRGB"><feFlood flood-opacity="0" result="BackgroundImageFix"/><feColorMatrix in="SourceAlpha" values="0 0 0 0 0 0 0 0 0 0 0 0 0 0 0 0 0 0 127 0" result="hardAlpha"/><feOffset dy="10"/><feGaussianBlur stdDeviation="12.5"/><feComposite in2="hardAlpha" operator="out"/><feColorMatrix values="0 0 0 0 0 0 0 0 0 0 0 0 0 0 0 0 0 0 0.15 0"/><feBlend in2="BackgroundImageFix" result="effect1_dropShadow_910_7849"/><feBlend in="SourceGraphic" in2="effect1_dropShadow_910_7849" result="shape"/></filter><filter id="b" x="211.513" y="1.019" width="136.067" height="136.069" filterUnits="userSpaceOnUse" color-interpolation-filters="sRGB"><feFlood flood-opacity="0" result="BackgroundImageFix"/><feGaussianBlur in="BackgroundImageFix" stdDeviation="27.183"/><feComposite in2="SourceAlpha" operator="in" result="effect1_backgroundBlur_910_7849"/><feBlend in="SourceGraphic" in2="effect1_backgroundBlur_910_7849" result="shape"/></filter></defs></svg>